<?xml version="1.0" encoding="UTF-8" standalone="no"?>
<svg
   style="margin: auto; background: rgb(255, 255, 255); display: block;"
   width="200px"
   height="200px"
   viewBox="0 0 100 100"
   preserveAspectRatio="xMidYMid"
   version="1.1"
   id="svg15"
   sodipodi:docname="loader.svg"
   inkscape:version="1.2.2 (732a01da63, 2022-12-09)"
   xmlns:inkscape="http://www.inkscape.org/namespaces/inkscape"
   xmlns:sodipodi="http://sodipodi.sourceforge.net/DTD/sodipodi-0.dtd"
   xmlns="http://www.w3.org/2000/svg"
   xmlns:svg="http://www.w3.org/2000/svg">
  <sodipodi:namedview
     id="namedview17"
     pagecolor="#ffffff"
     bordercolor="#666666"
     borderopacity="1.0"
     inkscape:pageshadow="2"
     inkscape:pageopacity="0.0"
     inkscape:pagecheckerboard="0"
     showgrid="false"
     inkscape:zoom="3.595"
     inkscape:cx="100.27816"
     inkscape:cy="144.36718"
     inkscape:window-width="1920"
     inkscape:window-height="1017"
     inkscape:window-x="-8"
     inkscape:window-y="-8"
     inkscape:window-maximized="1"
     inkscape:current-layer="svg15"
     inkscape:showpageshadow="2"
     inkscape:deskcolor="#d1d1d1" />
  <defs
     id="defs5">
    <clipPath
       id="ldio-65cj23gtye-cp">
      <circle
         cx="50"
         cy="50"
         r="35"
         id="circle2" />
    </clipPath>
  </defs>
  <circle
     cx="50"
     cy="50"
     r="35"
     fill="#00044b"
     id="circle7"
     style="fill:#b32a63;fill-opacity:1" />
  <g
     clip-path="url(#ldio-65cj23gtye-cp)"
     id="g13">
    <path
       transform="matrix(2,0,0,2,-50,-50)"
       fill="#ea1e00"
       d="m 64.4,74.4 c 0.3,0.3 0.2,0.3 -0.3,0.3 0,-0.4 0.1,-0.2 0.3,-0.3 z m -33,1 c -0.2,0.1 -0.3,-0.2 -0.5,0.1 0.3,0.2 0.6,0.1 0.8,-0.1 -0.1,-0.2 -0.1,0 -0.3,0 z M 84.9,36.9 c -0.3,0.2 -0.8,-0.1 -1.1,-0.5 0.1,0.2 0.1,0.6 0.3,0.9 -0.5,0.2 -0.2,0.6 0.2,0.7 0,-0.1 0,-0.3 0,-0.4 0.2,0.1 0.4,0.2 0.5,0.3 C 85,37.7 85,37.6 85.2,37.4 85.1,37.2 85,37 84.9,36.9 Z m 0.2,3.7 c 0,-0.6 -0.1,-2.1 -0.6,-2.4 -0.6,-0.4 0.5,2.1 -0.6,1.6 0,0.2 -0.1,0.5 0,0.7 -0.8,-0.3 -0.9,0.5 -1.4,0.9 0.3,0.3 0.4,0.6 0.6,0.9 0.3,-0.4 0.2,-0.9 -0.3,-1.2 0.2,0 0.4,-0.2 0.6,-0.2 0.2,0 0.6,0.2 0.6,0.2 0.2,-0.1 0.5,-0.4 1.1,-0.5 z M 83.7,41 c -0.4,-0.1 -0.7,0.2 -0.3,0.6 0.2,-0.4 0,-0.1 0.3,-0.2 0.1,-0.2 -0.1,-0.3 0,-0.4 z m 9.8,21.8 c 0.1,0.5 0.3,0.9 0.7,0.8 C 94.1,63.3 93.8,63 93.5,62.8 Z M 93,71.2 c -0.1,-0.1 -2.5,1.6 -2.9,2.1 0.8,0.5 2.9,-1.2 3.1,-2.1 -0.2,0.3 -0.3,0 -0.2,0 z m 2,-1.3 c -0.4,0.2 -0.6,0 -0.5,-0.4 0,0.1 -0.1,0.2 -0.1,0.3 0.1,-0.5 0.1,-0.8 -0.1,-1.1 -0.3,0.7 0.1,1.4 -0.7,2 0.3,0.3 0.3,0.4 -0.1,0.7 0.1,0 0.1,0.1 0.1,0.2 0.3,-0.3 1.4,-1.4 1.4,-1.7 z M 82,50.6 c 0.2,-0.2 0.3,-0.2 0.3,-0.5 -0.1,0 -0.3,-0.1 -0.4,-0.1 0,0.2 0,0.4 0.1,0.6 z m 0.4,0 c -0.3,-0.4 -0.2,0.1 -0.1,0.5 0.2,-0.3 0.3,-0.5 0.2,-0.9 0,0.2 -0.1,0.3 -0.1,0.4 z m 0.4,-0.9 c -0.1,0 -0.2,0 -0.3,0 0,0.1 0.2,0.4 0.2,0.5 -0.1,0 -0.1,0 -0.2,0 0.1,0.2 0.1,0.3 0.2,0.5 0.1,-0.2 0.1,-0.2 0,-0.5 0.1,0 0.2,0.1 0.2,0.1 0.1,-0.2 0,-0.4 -0.1,-0.6 z M 81,51 c 0.2,-0.3 0.3,-0.4 0.2,-0.8 -0.1,0.5 -0.4,0.8 -0.6,1.2 0.2,-0.1 0.3,-0.3 0.4,-0.4 z m 0.2,-2.4 c 0.1,0.2 0.1,0.5 0.3,0.3 0,0.4 0.3,0.6 0.6,0.6 0,0 0,-0.1 0.1,-0.1 0.1,0.2 0.2,0.3 0.4,0.4 0,-0.7 -0.6,-0.5 -0.8,-1 -0.2,-0.4 0.2,-0.9 0,-1.4 -0.5,-0.1 -0.6,0.3 -0.4,1 0,0 -0.1,-0.1 -0.1,-0.1 -0.2,0 -0.2,0.1 -0.1,0.3 z m 2.1,3.6 c 0.1,-0.5 0.1,-1.1 -0.3,-1.4 0,0.1 0,0.2 0,0.3 -0.4,0.2 -0.9,0.1 -0.9,0.8 0.7,-0.7 0.4,0.2 1,0.5 0,-0.2 0.1,-0.5 0.1,-0.7 0,0.3 0.1,0.4 0.1,0.5 z m -1.8,-2.6 c 0.1,-0.1 0.3,-0.1 -0.2,-0.3 0.1,0.1 0.2,0.2 0.2,0.3 z m 10.3,7.8 c 0.1,0.1 0,0.2 0.2,0.1 -0.1,-0.2 -0.2,-0.5 -0.3,-0.7 -0.1,0.2 0,0.3 0.1,0.6 z m -1.6,-0.1 c 0.4,-0.1 1.1,-0.5 0.6,-0.9 -0.1,0.4 -0.2,0.6 -0.4,0.3 -0.1,0 -0.5,0.2 -0.5,0.3 0,0.2 0.1,0.2 0.3,0.3 z m 0.7,-1.2 c 0.1,0.2 0.2,0.3 0.2,0.5 0.1,-0.5 -0.2,-0.8 -0.6,-0.8 0.2,0.1 0.3,0.2 0.4,0.3 z M 90.3,59 c -0.2,-0.4 -0.7,-0.7 -1,-1.6 0.1,0 0.2,0 0.3,0 -0.7,-0.7 -1.4,-1.7 -2.5,-1.8 -0.5,-0.1 -1,0.5 -1.3,0.3 -0.5,-0.2 -0.1,-1.4 -1.2,-0.8 0.3,0.4 0.6,0.5 0.9,0.6 -0.2,0 -0.3,0.1 -0.5,0.1 0.1,0.2 0.2,0.4 0.3,0.5 0.1,0 0.2,-0.2 0.2,-0.2 0.6,0.5 2,1 1,2 0.6,-0.3 0.7,0.4 1.2,0.3 0.4,-0.1 0.4,-0.5 0.6,-0.5 0.9,0 1.2,1 2,1.1 z m 2.9,-0.5 c -0.1,0.1 -0.2,-0.2 -0.2,0.1 0.3,0.2 0.2,0 0.2,-0.1 z m -0.8,-0.8 c 0,0 -0.1,-0.2 -0.2,-0.3 0,0.2 0.1,0.2 0.2,0.3 z m 0.5,0.3 c 0.1,0.1 0.1,0.1 0.2,0.2 -0.2,-0.2 -0.3,-0.3 -0.5,-0.4 0.1,0 0.2,0.1 0.3,0.2 z m 0.6,1.1 c 0.1,-0.2 0.1,-0.3 0,0 z m 0,-0.4 c 0,-0.2 0,-0.4 -0.2,-0.6 0,0.2 0.1,0.4 0.2,0.6 z M 81,45.9 c 0.1,-0.5 0.2,-1 -0.1,-1.3 -0.3,0.4 -0.3,0.9 0.1,1.3 z M 94.8,61 c 0,0 0.1,-0.2 0,-0.4 -0.1,0.2 0,0.5 0,0.4 z m 0,0.2 c 0.1,0.1 0,0.3 0.2,0.1 -0.1,-0.2 -0.2,-0.1 -0.2,-0.1 z M 29.5,76.3 c -0.4,-0.8 -0.5,-0.2 -0.7,-0.2 0.2,0 -0.3,0.2 -0.3,0.2 -0.2,0 -0.6,-0.3 -0.9,-0.4 0.9,0.9 1.9,1.2 2.6,0.7 -0.2,0 -0.4,-0.2 -0.7,-0.3 z M 89.6,64.4 c 0,-0.2 -0.2,-0.3 -0.1,-0.7 -0.2,0 -0.1,-0.1 -0.3,0 0.1,-0.8 -0.5,-1.1 -0.7,-1.7 -0.1,-0.5 0,-1 -0.2,-1.6 -0.1,0.1 -0.1,0.1 -0.2,0.2 0,-0.5 -0.1,-1.1 -0.2,-1.6 -0.5,0.9 -0.5,3.8 -1.7,2.2 -0.3,-0.5 -0.4,-0.2 -0.4,-0.8 0,-0.3 0.4,-0.5 0.4,-0.7 0,-0.1 -1.1,-0.4 -1.4,-0.5 0.3,0.3 -0.7,0.7 -0.8,1.5 -0.5,-0.2 -0.7,-0.4 -1.1,-0.2 -0.4,0.1 -0.7,0.9 -0.7,1.1 0,0 -0.1,0.1 -0.1,0.1 0,-0.1 0,-0.2 -0.1,-0.3 -0.4,0.8 -0.6,1.1 -1.3,1.4 -0.6,0.3 -1.1,0.4 -1.6,1 0,-0.1 0,-0.2 0,-0.3 -0.3,0.6 -0.5,1.1 -0.3,1.8 -0.1,-0.1 -0.1,-0.2 -0.2,-0.3 0,0.1 0,0.3 0,0.4 0,-0.1 -0.1,-0.1 -0.1,-0.2 0.1,1 0.1,1.7 0,2.7 0,0.4 -0.6,0.5 0,0.9 0.4,0.2 0.7,-0.3 1,-0.4 0.8,-0.2 1.4,-0.5 2.3,-0.7 1.4,-0.5 1.7,-0.2 2.1,1.1 0.2,-0.3 0.5,-0.6 0.8,-0.8 -0.1,0.4 -0.3,0.7 -0.6,1 0.2,-0.1 0.3,-0.2 0.5,-0.4 -0.1,0.2 -0.1,0.3 -0.2,0.5 0.5,0.2 0.5,2.1 1.5,0.9 0,0.1 -0.1,0.1 -0.1,0.2 1.1,1.1 5,-4.1 3.8,-5.8 z m -3.7,6.9 c -0.4,-0.2 -1,0.2 -0.7,0.8 0.2,0.6 0.9,-0.4 1.1,-0.9 -0.1,0 -0.2,0 -0.4,0.1 z m -61.3,-27 c 0,-0.2 0.2,-0.3 -0.1,-0.5 0,0.2 0.1,0.4 0.1,0.5 z m -0.4,0.6 c 0.1,0.1 0.1,0.2 0.1,0.4 0.1,-0.2 0.1,-0.3 0,-0.6 -0.2,-0.1 0,0.1 -0.1,0.2 z m 0.2,-1 c -0.2,0 -0.3,-0.1 -0.3,0.2 0.2,0 0.3,-0.2 0.3,-0.2 z m 11.8,13 c -1,-0.3 -1.6,-1.5 -2.7,-1.1 0,-0.7 -0.8,-0.9 -1.2,-0.6 0,-0.4 -0.4,-0.5 -0.5,-0.8 -0.1,-0.1 -0.1,-0.7 -0.2,-1 -0.3,-0.7 -0.6,-0.8 -1.2,-1.1 -0.6,-0.3 -0.6,-0.2 -1.1,-0.8 -0.3,-0.4 -0.6,-0.7 -1,-1 0.1,0 0.2,-0.1 0.3,-0.1 -0.9,-0.2 -1.7,0.6 -2.3,-0.6 -0.4,0.3 -0.4,0.8 -0.6,1.2 0,-0.3 0,-0.7 0,-0.9 0.4,-0.6 -0.1,-0.2 -0.5,0.1 -0.3,0.2 -0.7,0.9 -1,1 0,0 -1.6,-0.3 -1.6,-0.3 -0.8,-0.7 0.1,-1.4 -0.1,-2.2 -0.2,-0.8 -1.1,-0.3 -1.6,-0.5 0.2,-0.3 0.3,-0.7 0.3,-1.1 0.1,0 0.1,0 0.1,0.1 0.2,-1.2 0.5,-1.7 -0.7,-0.8 -0.6,0.5 -1.3,1.5 -1.8,0 -0.3,-0.8 0,-2.4 0.4,-3.1 0.7,-1.1 1.6,-0.5 2.3,-0.6 -0.1,-0.7 1.4,-0.4 1.6,-0.3 0.2,0.3 0.2,2.8 0.8,1.6 0.5,-1 -0.4,-1.7 0.5,-2.7 0.6,-0.7 2,-1.1 1.3,-2.2 0.1,0 0.1,0 0.2,0.1 0,-0.2 0,-0.3 0.1,-0.4 0,0.4 0,0.4 -0.1,0.8 0.3,-0.4 0.3,-0.4 0.3,-0.9 0.1,0.1 0.1,0.1 0.1,0.2 0.2,-0.3 0.4,-0.5 0.4,-0.7 0,0 0.4,-0.1 0.6,-0.1 -0.1,0 -0.3,0 -0.5,0 0.4,-0.2 0.8,-0.2 1.1,-0.4 -0.1,0 0,0 -0.2,0 -0.1,-0.9 1.4,-1.5 1.9,-1.4 -0.5,0.2 -0.4,0.3 -0.6,0.7 0.5,-0.1 1.4,-0.5 1.9,-0.9 0,-0.1 -0.1,-0.3 -0.1,-0.4 -0.6,1.2 -1.7,-0.1 -0.8,-0.7 -0.7,-0.6 -1.3,0.5 -2,0.8 0.5,-0.5 1.1,-1.2 1.7,-1.3 0.8,-0.2 1.5,0.2 2.2,-0.4 1.2,-0.9 0.1,-1.1 -0.6,-1.9 0.2,-0.5 -0.1,-0.9 -0.2,-1.5 -0.5,0.5 -1.8,1 -1.1,-0.3 -0.5,0 -0.6,-0.4 -1.2,-0.4 -1,0 -0.4,0.7 -1.2,1.3 0.6,0.8 -0.3,1.4 -0.9,1.5 0.6,1.6 -1.5,1.4 -0.5,-0.2 -0.8,0 -1.4,-1 -2.2,-0.7 0,-0.6 0.1,-0.4 -0.3,-0.7 0.5,-1.3 2.5,-2.2 3.5,-2.7 0.3,-0.1 1.4,-0.2 1.3,-0.9 -0.2,-1 -1.3,0.4 -1.7,0.6 0.1,-0.2 0,-0.2 0.1,-0.5 -0.2,0 -0.2,-0.2 -0.6,0 0.1,-0.1 0.1,-0.2 0.2,-0.3 -0.1,0 -0.2,0 -0.4,-0.1 0.7,-0.6 -0.4,-1 -0.8,-0.1 0.5,0.5 -0.1,0.7 -0.5,1 0.1,-0.1 0.1,-0.2 0.2,-0.3 -0.5,-0.2 -1,0.1 -1.6,0 -0.4,-0.1 -0.7,-0.4 -1.2,-0.1 0,0 0.1,0.1 0.1,0.1 -0.4,0.1 -1.1,0.1 -1.7,0 0.1,-0.1 0.3,-0.1 0.4,-0.2 -0.6,-0.3 -1.5,-0.7 -2.1,-0.3 0.1,-0.1 0.1,-0.2 0.2,-0.3 -0.4,0.3 -0.9,0 -1.4,0 -0.6,0.1 -1.2,0.4 -1.8,0.4 -0.6,0 -2.5,-0.4 -2.7,-0.6 -1.3,-0.2 -2.7,0.3 -4,0.8 0.3,0.2 0.3,0.4 0.4,0.8 -0.2,0 -0.3,0 -0.5,0 0.1,-0.1 0.1,-0.1 0.2,-0.2 -0.4,0 -0.9,0.2 -1.3,0.3 0.2,0.7 0.9,0.5 1.4,0.3 C 9.1,29.4 8.5,29.3 7.9,29.5 7.4,29.7 6.5,30.8 7.5,30.6 7.4,30.7 7.4,30.9 7.2,31.1 7.4,31 7.5,31 7.7,31 c 0,0.1 0,0.1 -0.1,0.2 0.1,0 0.1,-0.1 0.2,-0.1 0,0.1 0,0.1 0,0.2 0.2,-0.1 0.4,-0.1 0.6,-0.2 -1,0.9 -2.2,1 -3.2,1.7 2.1,-0.4 3.5,-1.8 5.4,-2.6 -0.3,0.1 -0.7,0.4 -0.8,0.8 0.8,-0.2 1.2,-0.4 1.9,-0.4 0.8,0.1 1.3,0.9 2.1,0.8 -0.1,0.6 -0.1,1.8 0.3,2.2 -0.6,0.8 1.3,1 0.4,2 -0.2,-1.2 -0.9,1 -1.2,1.6 -0.4,0.8 -0.5,2 -0.2,2.8 0.2,0.4 1.7,3 0.9,3.3 0.6,0.7 0.6,1.2 1,2 0.6,-0.7 -1.1,-2.5 -0.6,-3.6 0.4,0.2 0.8,1.8 1,2.3 0.2,0.4 0.6,1.1 0.8,1.6 0.1,0.7 -0.2,0.6 0.2,1.3 0.2,0.4 0.9,0.7 1.3,0.9 0.5,0.3 1,0.1 1.3,0.2 0.8,0.3 1.4,1.1 2.1,1.3 0,0 -0.1,0 -0.1,0 0.4,0.5 0.5,0.9 0.7,1.3 0.1,-0.1 0.1,-0.1 0.1,-0.2 0.4,0.6 0.9,1.2 1.4,1 -0.1,-0.8 0.3,-0.4 0.5,-0.1 0.3,0.5 0.3,1.3 0.2,1.7 -0.2,0.7 -1.6,1.6 -0.9,2.5 0,-0.1 0.1,-0.1 0.1,-0.2 0,0.6 -0.4,0.8 -0.3,1.5 0.1,0.3 0.7,1.2 0.9,1.6 0.3,0.7 0.5,1.6 1,2.1 0.5,0.6 1.3,0.7 1.6,1.4 0.3,0.7 0.2,2 0.2,2.8 0,1 0.2,1.8 0.2,2.7 0.1,1.2 -0.5,3.5 0.3,4.4 0,-0.2 0,-0.3 0,-0.5 0.3,0.3 0.2,0.4 0.3,0.9 -0.1,0 -0.2,-0.1 -0.3,-0.1 0,0.5 0,0.6 -0.1,1 0.1,0 0.3,0.1 0.4,0.1 -0.8,1.1 0.7,2.6 1.6,2.7 -0.1,-0.5 0.1,-0.6 0.6,-0.6 -0.6,-0.4 -0.2,-0.6 -0.2,-1 0,-0.2 0.3,-0.7 0.3,-0.7 0,-0.2 -0.3,-0.5 -0.3,-0.4 0,-0.1 -0.3,-0.3 -0.3,-0.6 0,-0.2 0.4,-0.2 0.4,-0.2 0.1,-0.5 -0.2,-0.7 0.3,-1 0,-0.1 -0.1,-0.1 -0.1,-0.2 -0.8,0 0,-0.5 0,-0.4 0.1,-0.3 0.5,-0.3 0.1,-0.9 1.8,0.4 1.2,-1.1 0.8,-2 1,0.9 1.4,0 1.9,-1 0.6,-1.3 0.3,-2.4 1.5,-3.2 0.7,-0.5 0.7,-0.1 1.1,-1 0.3,-0.8 0.3,-1.4 0.4,-2.2 0,-0.8 1.2,-2.2 0.8,-3.6 z m -12,-30.7 c -0.2,0 -0.3,-0.1 -0.5,0 0.2,0.4 0.2,0.1 0.5,0 z m -1.8,-0.9 c -0.2,0.1 -0.4,0.2 -0.5,0.3 0.4,0.1 0.8,0 1.2,0 -0.2,0 -0.4,0.2 -0.6,0.2 0.5,0 1.7,0 2,-0.5 -0.2,0 -0.3,0 -0.4,0 0,-0.1 0,-0.2 0.1,-0.3 -0.4,0.1 -0.3,-0.1 -0.4,0.4 -0.5,0.1 -1,-0.2 -1.4,-0.1 z m 1.8,2 c -0.5,-0.1 -0.6,-1.9 -1.2,-0.5 0,-0.6 -0.7,-0.4 -1.2,-0.3 0.1,-0.1 0.1,-0.1 0.2,-0.2 -0.5,-0.1 -1.1,0.2 -1.5,0.5 0.2,0 0.4,0.1 0.7,0.1 -0.2,0 -0.4,0.1 -0.6,0.1 0.3,0.2 0.8,0.1 1.2,0.2 -0.4,0 -0.8,0.1 -1.2,0.1 0.6,0.8 3,0.6 3.6,0 z M 24,24.9 c 0,-0.3 -0.3,-0.1 -0.7,0 0.3,0.1 0.5,0 0.7,0 z m -2.4,0.5 c 0.4,-0.1 0.9,-0.1 1.2,-0.5 -0.6,0 -1.2,0.2 -1.8,0.5 0.2,0 0.4,0 0.6,0 z m 10.8,9.4 c -0.1,0 -0.2,0.2 -0.3,0 0,0 0.1,-0.1 0.1,-0.1 -0.1,0 -0.3,0 -0.4,0 0.2,-0.2 0.3,-0.5 0.5,-0.7 -0.6,0.1 -1.2,1.1 -1.3,1.6 0.3,0 0.7,0 1,0.1 -0.1,0.1 -0.1,0.1 -0.2,0.2 0.1,-0.1 0.4,-0.2 0.5,-0.3 0,0.1 0,0.2 -0.1,0.4 0.4,0 0.5,-0.3 0.4,-0.7 -0.1,0 -0.1,0 -0.2,0.1 0,-0.1 0.1,-0.2 0.1,-0.3 0.1,-0.2 0,-0.2 -0.1,-0.3 z M 14,35 c 0.7,0.6 0.5,-0.1 0.2,-0.5 -0.5,-0.4 -0.7,0.1 -0.2,0.5 z m 5.6,-7.9 c 0.8,-0.1 1.5,-0.7 2.3,-0.8 -0.9,-0.9 -1.9,0 -2.6,0.5 0.2,0 0.2,0.2 0.3,0.3 z m 8.1,2.3 c -0.8,-0.6 -0.7,-0.5 -1.6,0.2 0.1,0 0.4,0.2 0.3,0.2 0.6,-0.4 1.2,-0.1 1.3,-0.4 z m -14.4,3.7 c -0.2,0.2 -0.3,0.4 0,0.7 0.1,-0.2 0.2,-0.5 0.3,-0.7 -0.2,0 -0.2,0 -0.3,0 z m 14.2,-3 c 0.1,0 0.1,0.3 0.2,-0.1 -0.1,0 -0.1,0.1 -0.2,0.1 z m 2.3,5.9 c -0.1,0 0,-0.3 -0.2,-0.1 0.3,0.2 0.2,0.2 0.6,0.1 -0.1,0.1 -0.3,0.1 -0.4,0 z m -3.1,-6 c 0.2,0 0.3,0.1 0.6,-0.2 -0.3,0 -0.4,0.1 -0.6,0.2 z m 3.8,5 c -0.2,-0.2 -0.3,-0.3 -0.6,-0.3 0.2,0.2 0.4,0.2 0.6,0.3 z M 27,25.3 c 0,0.2 0.1,0.2 0,0.5 0.7,0.2 2.2,0.4 2.7,-0.2 -0.7,-0.3 -1.4,0.1 -2.1,-0.2 0,0 0.1,-0.1 0.1,-0.1 -0.4,-0.2 -0.8,-0.3 -1.3,-0.1 0.3,0.1 0.4,0.1 0.6,0.1 z m -0.2,-0.4 c 0.2,0 0.3,0 0.5,0 -0.1,-0.1 -0.4,0 -0.5,0 z m 0.7,-0.5 c 0.1,0 0.2,0 0.4,0 -0.1,0.1 -0.2,0.1 -0.3,0.2 0.6,0.4 1.2,0 1.8,-0.2 -0.5,-0.6 -1.3,-0.6 -2,-0.2 -0.1,0.2 0,0 0.1,0.2 z m -1.2,1.4 c 0.2,0 0.3,0.1 0.5,-0.1 -0.2,-0.1 -0.7,-0.3 -0.5,0.1 z m 0.7,-1 c -0.1,-0.2 -0.1,-0.3 -0.5,0 0.3,0.1 0.3,-0.1 0.5,0 z m 2.7,1.6 c 0.1,0 0.3,0 0.5,0 -0.2,-0.3 -0.6,-0.4 -0.9,-0.2 0.1,0.3 0.1,0.2 0.4,0.2 z M 26.9,26 c -0.5,-0.1 -0.9,0.1 -1,0.7 0.5,-0.1 1,-0.3 1.4,-0.6 C 27.1,26.1 27,26 26.9,26 Z m 4.6,1.3 C 31.1,27 30.8,26.8 30.3,26.9 30.1,26.3 29.4,26.5 29,26.7 c 0.3,-0.8 -0.6,-0.5 -1,-0.2 0,-0.1 0,-0.1 -0.1,-0.2 0.1,-0.1 0.2,-0.1 0.3,-0.2 -0.6,0 -1.1,0.2 -1.4,0.8 0.1,0 0.2,0 0.3,0 0,0.1 -0.1,0.1 -0.2,0.2 0.6,0.3 2.7,0.1 2.5,0.6 0.8,0.1 0.7,0.4 0.2,0.9 -0.3,0.3 -0.9,0.1 -1.3,0.6 0.5,0.2 0.9,-0.2 1.4,0.3 0,0 -0.1,0.1 -0.1,0.1 0.4,0.3 0.8,0.5 1.2,0.5 -0.1,-0.2 -0.2,-0.5 -0.4,-0.7 1.4,1.5 0.5,-0.9 0.4,-0.7 0.3,-0.6 0.9,0.8 1.6,-0.4 -0.5,-0.1 -0.8,-0.5 -1.3,-0.6 0.2,-0.1 0.3,-0.1 0.5,-0.2 0,0 -0.1,-0.1 -0.1,-0.2 z m -5.8,-2.6 c 0.2,0.1 0.4,0.1 0.6,0.1 -0.1,-0.4 -0.5,-0.5 -0.9,-0.3 0.1,0 0.1,0 0.2,0.1 -0.1,0 -0.2,0.1 -0.3,0.1 0.1,0 0.2,0 0.4,0 z M 29,24 c 0.5,0.1 0.9,0.1 1.4,0.1 -0.3,0.1 -0.7,0.1 -1,0.1 0.1,0.2 0,0.1 0.2,0.3 -0.2,0.1 -0.5,0.2 -0.8,0.3 0.2,0.1 0.3,0.2 0.4,0.3 -0.4,-0.2 -0.8,0 -1.1,0.3 0.7,0.1 1.9,0.3 2.5,-0.2 -0.1,0 -0.2,0 -0.4,0 0.4,-0.3 1,-0.4 1.2,-0.7 -0.1,0 -0.2,0 -0.3,0 0.9,0 1.8,-0.4 2.7,-0.6 -0.1,0 -0.3,0 -0.4,0 0.4,-0.1 0.9,-0.1 1.3,-0.3 -1.6,-0.4 -4.4,-0.4 -5.9,0.3 0.1,-0.1 0.1,0 0.2,0.1 z m 0.5,4.2 c -0.2,-0.3 -0.3,-0.3 -0.5,0.2 0.3,0 0.4,-0.1 0.5,-0.2 z m -5.1,-3.6 c -0.2,0 -0.4,-0.1 -0.6,0.1 0.2,0 0.4,-0.1 0.6,-0.1 z m 0.6,2.8 c -0.2,0 -0.4,0 -0.7,0.2 0.3,0.2 0.6,0.2 0.9,0.1 0,-0.3 -0.1,-0.2 -0.2,-0.3 z m -0.6,-0.9 c 0.4,0.5 0.9,0.5 1.3,0 -0.1,0 -0.2,-0.1 -0.2,-0.1 0.2,-0.1 0.2,-0.1 0.3,-0.3 -0.4,0 -0.9,-0.1 -0.9,0.3 -0.2,0 -0.3,0.1 -0.5,0.1 z m 0.9,-0.8 c 0.4,0.2 0.9,-0.1 0.9,-0.5 -0.4,0 -0.8,0 -1.1,0.4 0.4,-0.2 0.2,0.1 0.2,0.1 z m 52.8,21 c -0.7,0.3 -0.2,0.9 0,0.7 0.3,-0.4 0.3,-0.6 0,-0.7 z m -53.4,0.1 c 0.2,0 0.3,0 0.4,-0.2 -0.8,-0.5 -2,-1.9 -3,-0.7 0.3,-0.1 0.6,-0.2 0.9,-0.3 0,0 -0.1,0.1 -0.1,0.1 0.6,0.3 1,0.3 1.4,0.8 -0.1,0.1 -0.1,0.2 -0.2,0.2 0.2,0 0.4,0.1 0.6,0.1 z m 31,-6.3 c -0.1,0.1 -0.2,0.1 -0.4,0.1 0.4,0.2 0.3,0.1 0.6,-0.2 0,0 -0.1,0 -0.2,0.1 z m -6.2,-7.7 c 0.1,-0.4 0.2,-0.6 -0.3,-0.4 0,0.3 0.1,0.3 0.3,0.4 z m -0.6,5.3 c 0,-0.3 0.1,-0.4 0,-0.7 -0.3,0.3 -0.1,0.4 0,0.7 z m -3.8,-5.5 c 0.1,-0.1 0.1,-0.3 0.2,-0.1 0,0.1 0.4,0.4 0.4,0.6 0,0.4 -0.6,-0.1 -0.3,0.6 -0.1,0 -0.2,0.1 -0.3,0.1 0.1,0 0.3,0.2 0.5,0.2 -0.2,0.1 -0.4,0.3 -0.6,0.5 0.7,0 1.9,0 1.9,-1 -0.6,-0.2 -0.6,-1 -1.2,-1.2 0.2,-0.2 0.2,-0.5 0.3,-0.6 -0.2,0 -0.3,0 -0.5,0 0.1,-0.1 0.2,-0.3 0.3,-0.4 -0.8,-0.1 -0.9,0.7 -0.7,1.3 z m 8.2,7.9 c -0.2,0 -0.2,0.1 -0.4,-0.1 0,0.1 0,0.1 0,0.2 0.3,0.1 0.5,0.2 0.8,0 -0.2,-0.1 -0.2,-0.1 -0.4,-0.1 z M 41.5,27.3 c -0.3,0 -0.6,0 -0.9,0 0,-0.1 0.2,-0.4 0.2,-0.4 0.3,0.3 0.4,0.3 0.8,0.3 -0.2,-0.3 -0.2,-0.4 -0.6,-0.6 0.1,0 0.3,0 0.5,0 -0.1,-0.1 0,-0.2 -0.2,-0.4 0.3,0 0.5,-0.1 0.7,-0.2 0,0 0,0 -0.1,0 0.2,0 0.3,0 0.5,0 -0.1,-0.1 -0.2,-0.2 -0.2,-0.3 0.3,-0.2 0.3,-0.2 -0.1,-0.5 0.2,0 0.5,-0.1 0.7,-0.1 -0.3,-0.4 -0.2,-0.7 0.3,-0.9 -0.2,0 -0.3,0 -0.5,0 0.5,0 1,-0.2 1.6,-0.3 -0.6,-0.3 -1.5,-0.1 -2.1,0 0.1,-0.1 0.2,-0.1 0.2,-0.2 -0.6,-0.1 -1.3,-0.1 -1.9,-0.1 0.7,0 1.5,0.1 2.2,-0.1 -1.4,-0.2 -3.8,-0.7 -5,0.1 0.1,0 0.3,0.1 0.4,0.1 -1.6,-0.3 -3.3,-0.2 -4.8,0.4 0.2,0 0.3,0.1 0.5,0.1 -0.6,0.3 -1.4,0.1 -1.9,0.5 0.4,0.1 0.8,0.2 1.2,0.2 -0.3,0 -0.7,0 -1,0.1 0.2,0.2 4.1,0.7 2.5,1.7 0.3,0.1 0.5,0.2 0.8,0.4 -0.9,-0.5 -1,0.9 0,0.2 -0.6,1 -1.2,0.7 -0.8,2.1 0.2,0.7 0.5,0.9 0.9,1.1 0.7,0.4 0.6,0.2 1.1,-0.4 0.1,-0.1 0.4,-0.9 0.6,-1.1 0.4,-0.3 0.8,-0.2 1.1,-0.4 1.1,-0.4 2.2,-0.7 3.3,-1.3 z M 25.3,47.4 c 0.3,0.1 0.4,-0.1 0.6,0.3 0.2,-0.4 0.6,-0.3 0.9,-0.4 -0.3,-0.4 -0.9,-0.7 -1.4,-0.4 0.2,0.2 0.1,0.2 0.3,0.4 -0.2,0 -0.3,0.1 -0.6,0 -0.1,0.3 0,0.1 0.2,0.1 z m 55.5,10.9 c 0.1,0 0.2,-0.1 0.3,-0.1 C 81,58 80.7,58 80.5,58.4 c 0.1,0 0.2,-0.1 0.3,-0.1 z m 1.7,-1.7 c -0.2,-0.4 -0.3,-0.7 -0.5,-1.1 0.2,-0.1 0.3,-0.3 0.5,-0.3 0,-0.1 0,-0.1 0,-0.2 -0.4,0.2 -1.4,0.1 -0.8,-0.4 0.5,-0.4 1.2,0.5 1.3,-0.5 -0.4,0.6 -0.9,0 -1.3,0.2 -0.3,0.2 -0.5,1.1 -0.5,1.5 0,0 0.3,1.2 0.2,1.2 0.4,0.2 0.2,-0.9 0.4,-1.2 0,0.4 0.1,0.6 0.2,0.9 0.1,-0.1 0.2,-0.1 0.3,-0.2 -0.1,0.3 0,0.3 0,0.5 0.2,-0.1 0.1,-0.2 0.2,-0.4 z m -4,-1.3 c 0.1,0.8 1.5,1.1 1.9,1.1 0.1,-0.7 0.3,-1.8 0.9,-2 -0.6,-0.8 -0.4,-1.3 0,-1.8 -0.4,-0.2 -0.5,-0.6 -0.8,-0.5 -0.3,0.1 -0.6,0.9 -0.8,1.1 -0.6,0.7 -1.8,0.8 -1.2,2.1 z m 7.3,1.8 c -0.1,0.1 -0.2,0 -0.2,0.5 0.2,-0.2 0.1,-0.4 0.2,-0.5 z M 83.6,56 c -0.1,0 -0.2,0 -0.3,0 0.3,0.5 0.2,0.1 0.3,0 z m -2,2.9 c -0.1,-0.2 -0.1,-0.4 -0.5,-0.3 0.2,0.2 0.3,0.2 0.5,0.3 z m 0.7,-0.7 c -0.1,-0.2 -0.5,-0.1 -0.8,0.1 0.2,0.1 0.5,0 0.8,-0.1 z M 78.7,58 c 0.5,0.1 1,0.2 1.5,0.1 -0.6,-0.3 -2.6,-1.5 -3,-0.6 0.5,0.2 1,0.3 1.5,0.5 z m -1.3,-1.5 c 0.3,-1 -2,-4.1 -3.1,-3.9 0.4,0.9 1,1.6 1.5,2.5 0.2,0.3 1.7,3.2 1.6,1.4 z m 6.8,-0.4 c 0.2,0.1 0.3,0 0.5,0.2 -0.2,-0.5 -0.6,-0.6 -0.9,-0.2 0.2,0 0.3,0 0.4,0 z m -0.3,-1 c 0.1,-0.4 0.3,-0.8 -0.1,-1.2 -0.1,0.4 -0.1,0.8 0.1,1.2 z m -1.2,3.7 c 0.2,-0.3 0.6,-0.5 0.9,-0.7 -0.5,0 -1,0.2 -1.2,0.8 0.1,0 0.2,0 0.3,-0.1 z M 44.1,33.6 C 44,33.7 44,33.9 43.9,34 c 0.4,0.1 1.4,-0.5 1.1,-1 -0.3,-0.7 -1,0 -0.9,0.6 z m -2.3,-4 c 0.5,0.1 1.1,-0.1 1.5,-0.5 0,-0.1 -0.2,-0.4 -0.2,-0.5 -0.6,0.1 -1.9,-0.2 -2.3,0.3 0.2,0 0.3,0.1 0.5,0.1 -0.1,0 -0.2,0.1 -0.4,0.2 0.2,0.1 0.3,0.1 0.5,0.2 -0.1,0.1 -0.2,0.1 -0.2,0.2 0.2,-0.1 0.4,-0.1 0.6,0 z m 6.9,8.9 c 0.1,1.7 0.3,-1.3 0,0 z m 1.8,0.9 c -0.2,0 -0.4,0.1 -0.6,0 0.1,0.3 0.4,0.5 0.7,0.6 0.1,-0.5 0,-0.5 -0.1,-0.6 z m -26.4,7.9 c -0.1,0.1 -0.2,-0.1 -0.2,0.1 0.3,0.2 0.3,0.2 0.6,0.1 -0.1,-0.2 -0.2,-0.1 -0.4,-0.2 z M 70,51 c -0.1,-0.1 -0.1,-0.1 -0.2,-0.2 -0.5,1.9 1.1,1.5 0.2,0.2 z m -9,9.2 c 0,-0.2 -0.1,-0.4 -0.2,-0.6 -0.1,0.3 -0.3,0.5 -0.4,0.7 -0.1,0.8 -0.9,0.8 -1.1,1.4 -0.2,0.4 0.1,0.7 0,1.1 -0.1,0.4 -0.3,0.6 -0.4,1 -0.1,1.2 0.5,1.5 1.1,0.7 0.5,-0.7 0.9,-2.6 0.9,-3.5 0,0.1 0.1,0.2 0.1,0.2 0.1,-0.3 0,-0.6 0,-1 z M 74.3,48.1 c -0.9,0.8 -1,-2.4 -2,-2.6 0,0.2 0,0.2 0,0.4 -0.3,-0.1 -0.5,0 -0.9,0.1 0.1,0.9 -1.3,1.5 -1.5,2.2 -0.2,0.6 -0.2,2.1 -0.3,2.7 -0.1,0.1 -0.3,0.4 -0.5,0.5 -1,-1.2 -1.5,-3.8 -1.8,-5.4 -0.6,0.6 -1.1,-0.6 -1.6,-1 -0.5,-0.5 -0.4,-0.4 -1.1,-0.5 -0.5,-0.1 -0.9,0.1 -1.3,-0.1 -0.4,-0.2 -0.5,-0.6 -0.8,-0.7 -0.3,-0.1 -0.5,0.2 -1,0 -0.7,-0.3 -0.8,-1.5 -1.5,-1.1 0.1,0.9 0.8,1.3 1,2.1 0,-0.2 0.1,-0.4 0.1,-0.5 0.1,1.3 1,0.8 1.4,-0.1 -0.1,0.9 0.5,0.7 0.8,1.1 0.4,0.8 0.2,0.6 -0.1,1.2 -0.4,1 -0.6,1.2 -1.5,1.7 -0.6,0.4 -2,1.9 -2.6,1.1 -0.3,-0.4 -0.1,-0.9 -0.2,-1.3 -0.2,-0.5 -0.7,-1 -0.9,-1.4 -0.4,-0.8 -1.8,-3 -1.6,-3.7 0,0.3 -0.2,0.5 -0.2,0.7 -0.2,-0.3 -0.4,-0.5 -0.5,-0.9 0.1,0.8 0.6,1.5 0.9,2.2 0.3,0.7 0.4,1.4 0.7,2.1 0.3,0.7 2,2.5 1.7,3 0.5,0.9 1.8,0.2 2.4,-0.1 0.1,3.4 -3.7,4.9 -3.4,7.8 0.1,1.4 0.7,2.7 -0.3,3.9 -0.7,0.8 -1,0.7 -1.1,1.7 0,0.5 0.2,0.8 -0.1,1.3 -0.1,0.2 -0.6,0.3 -0.7,0.5 0,0.1 0,0.5 -0.1,0.7 -0.2,0.5 -0.5,1.1 -0.9,1.5 -0.5,0.6 -0.9,0.8 -1.4,1 -0.2,0.1 -1.4,0.4 -1.5,0.4 C 51.3,68.4 51.7,67.9 51.6,67.4 51.4,66.6 51,66 50.8,65.2 50.6,64.3 50.6,63.6 50.3,62.7 50,61.9 49.8,61.4 50.1,60.5 c 0.3,-1.4 0.5,-2.2 0.1,-3.5 -0.3,-1 -0.9,-1.5 -0.9,-2.5 0,-0.8 0.3,-1.3 -0.2,-1.9 -0.9,0.6 -1.1,-0.8 -2.2,-0.5 -0.7,0.2 -1.9,0.8 -2.6,0.6 -1.5,-0.3 -2.2,-3.1 -2.8,-4.2 0.8,-0.8 0.2,-2.2 0.4,-3 0.1,-0.4 0.4,-1.2 0.6,-1.5 0.4,-0.6 0.9,-0.7 1.2,-1.3 0.5,-0.8 0.3,-1.3 1,-2 0.8,-0.9 0.3,-0.3 1.4,-0.5 0.9,-0.1 2.7,-1.4 3.4,-0.6 0.1,0 0.2,-0.1 0.2,-0.1 -0.2,0.8 -0.3,1.2 0.3,1.7 0.5,0.4 1.7,1.1 2.2,0.8 0.1,0 0,-0.6 0.5,-0.7 0.2,-0.1 0.7,0.4 0.9,0.5 0.5,0.2 1.7,-0.1 1.9,0.3 0.9,0.2 1,-1.5 1,-2.3 -0.6,0 -1.4,0.3 -1.9,0.1 -1.2,-0.5 -0.9,-1.5 0,-1.9 0.4,-0.2 1.1,-0.3 1.6,-0.3 0.4,0 1,0.7 1.4,0.3 0.6,-0.6 -0.9,-1.3 -1.3,-1.6 0.3,-0.4 0.2,-0.2 0.2,-0.5 0.1,-0.1 0.2,-0.1 0.4,-0.2 -0.4,-0.1 -1.6,0.5 -0.6,0.6 -0.4,0.4 -0.8,0.5 -1.1,0.1 0.1,-0.1 0.2,-0.1 0.3,-0.2 -1,-0.9 -1.9,1.4 -1,1.8 -0.2,0.1 -0.5,0.3 -0.7,0.5 -0.2,-0.4 -0.3,-0.3 -0.7,-0.2 0.1,0.1 0.1,0.1 0.2,0.2 -0.3,-0.1 -0.2,0.1 -0.4,-0.1 0,0.5 0.2,0.7 0.4,1.1 -0.1,0 -0.2,-0.1 -0.3,-0.1 0.1,0.2 0.1,0.2 -0.1,0.2 0,0.1 0.1,0.2 0.1,0.4 -1,0 -1,-1.6 -1.3,-2.1 -0.3,-0.5 -1.4,-1.3 -1.6,-1.2 -0.1,-0.2 0,-0.2 0,-0.3 -1.3,0 1.2,2 1.3,2.3 -0.7,-0.5 -0.1,0.3 -0.7,0.8 0.3,-1 -0.8,-1.3 -1.3,-1.8 -0.6,-0.6 -0.2,-0.5 -0.9,-0.6 -0.5,-0.1 -1.1,0.5 -1.3,0.7 -0.8,0.6 -0.7,1.7 -1.5,2.2 -0.8,0.5 -1.1,-0.4 -1.8,-0.1 -0.1,-0.5 -0.2,-2.3 0.1,-2.6 0.4,-0.5 1.5,0.4 1.9,-0.1 0.7,-0.8 -0.5,-1.5 -0.8,-2 0.3,0 0.5,-0.1 0.8,0 0,-0.1 -0.1,-0.3 -0.1,-0.4 0.5,0.3 0.9,-0.3 1.2,-0.6 0.3,-0.3 0.8,-0.7 1,-0.9 0.1,-0.2 0.3,0.2 0.4,-0.1 0,0 -0.1,-0.3 -0.1,-0.4 0.2,-0.4 -0.2,-0.8 0.5,-1 0,0.1 0.1,0.4 0.1,0.5 -1.1,0.9 1.1,0.8 1.5,0.7 0.6,-0.1 0.7,0.1 1.1,-0.3 0.2,-0.2 -0.2,-1.4 0.7,-0.6 0,-0.2 0,-0.3 0,-0.5 -0.2,-0.1 -0.1,-0.1 -0.3,-0.3 0.5,-0.2 0.9,0 1.3,-0.3 -0.6,-0.4 -1.5,0.5 -1.9,-0.3 -0.4,-0.7 0.2,-1.2 0.8,-1.5 -0.5,-0.8 -0.9,0.1 -1.2,0.5 -0.7,0.9 -0.3,0.8 -0.4,1.8 0,0.2 -0.6,1.4 -0.9,1.3 -0.4,-0.1 -0.7,-1.2 -1,-1.4 -0.3,-0.1 -1.5,0.8 -1.2,-0.8 0.1,-0.6 1.1,-1 1.6,-1.5 1,-1.1 2.6,-2.5 4.1,-1.6 -0.1,0 -0.2,0.1 -0.3,0.1 0.4,0.2 2.3,0.3 2.6,0.9 0.4,1 -1.2,0.3 -1.6,0.4 0.5,0.3 0.5,0.9 1.1,1 -0.1,-0.1 -0.1,-0.2 -0.2,-0.3 0.2,0 0.6,0 0.9,0 -0.1,-0.1 -0.1,-0.2 -0.2,-0.3 0.3,-0.3 0.6,-0.4 0.9,-0.2 0,-0.3 -0.1,-0.6 -0.3,-0.9 0.4,0 0.6,0.1 0.8,0.3 -0.1,0 -0.2,0 -0.3,0 0.4,0.6 1.1,-0.3 1.9,-0.4 -0.1,0.1 -0.1,0.1 -0.2,0.2 0.5,0 1.2,-0.1 1.6,-0.3 -0.1,-0.1 -0.2,-0.1 -0.3,-0.2 0.6,-0.2 1.5,0.2 2.1,0.5 0,-0.1 0.1,-0.1 0.1,-0.2 -0.7,-0.3 -1.2,-1.5 -0.2,-1.4 0.5,0 1.4,1.7 1,2.2 0.4,0 0.5,-0.1 0.6,-0.5 -0.4,-0.4 -0.6,-0.8 -1,-1.2 0.1,-0.1 0.2,-0.1 0.3,-0.2 -0.1,-0.1 -0.1,-0.2 -0.2,-0.2 0.2,0.2 0.4,0.4 0.6,0.6 -0.1,-0.1 -0.1,-0.2 -0.2,-0.2 0.4,-0.2 0.8,-0.2 1.2,0 -0.3,-0.2 -0.3,-0.4 -0.5,-0.6 0.4,-0.1 0.9,-0.1 1.3,-0.1 -0.1,-0.1 -0.2,-0.1 -0.3,-0.2 0.6,-0.7 1.8,-0.5 2.7,-0.6 0.1,-0.4 0.5,-0.5 0.9,-0.3 0.2,-0.4 0.1,-0.4 0,-0.4 0.7,0.2 1.8,-0.1 2.3,0.6 -0.2,0.1 -0.5,0.3 -0.7,0.4 1.1,0.1 2.1,0.5 3.2,0.4 -0.1,-0.1 -0.1,-0.2 -0.2,-0.2 1.1,0 1.5,0.7 2.5,1 0,-0.1 -0.1,-0.2 -0.1,-0.4 0.6,0.2 1.2,0.1 1.8,0.1 -0.1,-0.1 -0.3,-0.2 -0.4,-0.3 0.5,-0.3 1.7,-0.1 2.3,0.1 0.7,0.2 1.4,0.2 2.1,0.4 1.1,0.2 2.5,0.9 3.6,0.7 -0.2,-0.1 -0.3,-0.2 -0.5,-0.4 1.8,0.3 2.5,0.3 3.9,1.8 -0.2,0 -0.2,0.1 -0.5,0.1 0.4,0.2 0.9,0.4 1.2,0.8 -0.6,-0.2 -1.3,0.2 -1.3,0.9 -0.5,-0.4 -1.1,0 -1.6,0 0,0.9 0.6,0.7 1,1.4 -0.1,0 -0.1,0 -0.2,0 0.1,0.2 0.2,0.3 0.3,0.5 -0.1,0.1 -0.2,0.1 -0.3,0.2 0.1,0.1 0.1,0.3 0.2,0.4 -0.1,0 -0.2,0.1 -0.3,0.1 0.2,0.4 0,0.4 0,0.7 -0.7,-0.7 -1.6,-1.6 -1.8,-2.6 0.5,-0.2 1,-1.7 0.2,-1.7 0.2,1 -0.4,0.2 -0.7,0.3 -0.4,0.2 -1.1,0.3 -0.3,0.9 -0.6,0.3 -1.3,-0.1 -2,0 -1.2,0.1 -1.2,0.4 -1.8,1.7 1.2,0.2 2.2,0.4 2.5,2.1 0.1,0.6 0.1,1.6 -0.2,2.1 -0.4,0.5 -0.6,0.3 -0.9,0.6 0,0 -0.4,0.9 -0.4,0.9 0.1,0.5 0.3,0.4 0.6,0.9 1.1,1.9 -0.9,1.2 -0.5,0.3 -0.2,-0.2 -0.7,-0.8 -0.7,-0.8 -0.4,-0.2 -0.5,-0.6 -1.1,0 0.4,-1.3 -0.9,-0.4 -0.9,0 0,0.9 1.3,0.4 1.6,0.8 -1.4,0.4 0.5,2.1 0.6,2.8 0.2,1.5 -0.7,2.5 -1.6,3.1 -0.3,0.2 -0.4,0.3 -0.8,0.4 -0.1,0 0.1,0.4 -0.1,0.4 -0.1,0 -0.2,-0.3 -0.2,-0.3 -0.1,0 -1,-0.5 -1,0.7 0,0.8 1.1,1.3 1.3,2.1 0.2,1.1 -0.4,1.4 -1,2.1 0,-0.5 -0.9,-1.6 -1.4,-1.6 0,-0.1 0,-0.2 0,-0.3 -0.1,0 -0.2,0 -0.3,0 0,0.6 -0.1,1.2 0,1.7 0.1,0.4 0.5,0.7 0.7,1.1 0.4,0.8 0.5,1.3 0.8,2.1 -1.2,-0.2 -1.1,-2 -1.8,-2.8 0,0.1 0,0.2 0,0.2 0.1,-0.5 0,-3.8 -0.7,-3.4 z m -20.7,3.3 c -0.1,-0.1 -0.1,-0.1 -0.2,-0.2 0.1,0.1 0.1,0.2 0.2,0.2 z m 7.6,-11.7 c -0.1,-0.7 -0.4,-0.9 -0.5,-1.5 0.3,0.1 0.3,0 0.5,0 -0.2,-0.4 -0.5,-0.6 -0.5,-0.1 -0.1,-0.7 -0.6,-0.8 -0.9,-1.4 0.1,0 0.2,0 0.3,0 0.2,-0.4 -0.1,-0.3 0.4,-0.3 0.1,-1 -1,-0.7 -1.3,-0.2 -0.5,0.8 0.2,1.8 0.8,2.3 -0.9,0.6 0.4,1.9 1.2,1.2 z M 50.4,24.2 c 0.4,0.2 1,0.2 1.5,-0.1 -0.6,-0.2 -1.4,-0.2 -2,-0.1 0.2,0.2 0.3,0.2 0.5,0.2 z M 51,25 c 0.1,0 0.3,-0.1 0.4,-0.1 -0.3,-0.1 -0.5,-0.1 -0.8,-0.1 0.1,0.3 0.1,-0.1 0,0.2 0.2,-0.1 0.3,-0.1 0.4,0 z m -1.9,-0.2 c 0.1,0 0.2,0.1 0.3,0.1 -0.1,0 -0.1,0.1 -0.2,0.1 0.7,0.5 0.8,-0.4 1.5,-0.5 -0.9,-0.3 -1.4,-0.2 -2.2,-0.2 0.2,0.2 0.4,0.4 0.6,0.5 z m -22,22.5 c 0.1,0.1 0,0.4 0.4,0.1 -0.1,-0.1 -0.2,-0.1 -0.4,-0.1 z M 55.6,24.1 c 0.3,0.1 0.6,0 0.9,-0.1 -0.5,0 -0.8,0 -1.3,0 0.3,0 0.5,0.2 0.4,0.1 z m 2.1,2.8 c 0.4,0.2 0.9,0.4 1.4,0.3 -2,-0.4 1.3,-1.7 1.6,-1.9 -0.7,-0.3 -1.8,0.1 -2.5,0.5 -0.1,0.2 0,0.1 -0.3,0.4 0.1,0 0.1,0 0.2,0 -0.4,0.2 -0.4,0.4 -0.4,0.7 z m 7.4,-2.5 c 0.5,0.1 1,0.2 1.5,0.2 -0.4,-0.6 -1.5,-0.9 -2.1,-0.4 0.2,-0.1 0.3,0.1 0.6,0.2 z m 10.6,1.4 c 0.3,-0.1 0.7,-0.1 1.1,-0.1 -0.3,-0.5 -1.3,-0.5 -1.8,-0.4 0.2,0.4 0.4,0.5 0.7,0.5 z m -8.1,-1.2 c -0.5,-0.2 -0.9,-0.4 -1,0.2 0.4,0 0.9,0 1,-0.2 z m 9,1.5 c -0.2,0.1 -0.2,0 -0.3,0.2 0.3,0.1 0.6,0.1 0.8,0.1 C 77,26.2 76.8,26.1 76.6,26.1 Z M 5,29.1 c 0,0 0,0 0,0 z M 7.7,27 C 7.5,26.9 7.4,26.8 7.1,27.1 7.3,27.1 7.5,27 7.7,27 Z m 74.6,6.9 c 0.6,0.5 0.9,1.6 1.4,2.3 0,-0.1 0,-0.2 0,-0.3 0.1,0.1 0.2,0.2 0.3,0.2 -0.3,-0.4 -0.7,-0.7 -0.7,-1.2 0.2,0 0.3,0.1 0.5,0.1 -0.6,-0.6 -1.2,-1.8 -1.8,-2 0.1,0.3 0.2,0.4 0.3,0.9 z M 5.5,28.8 c 0,0 0.3,0.1 0.5,0.1 0.1,0.8 1.1,-0.1 1.7,-0.2 C 7.5,28.2 7,28.3 6.7,28.5 6.8,28.4 6.9,28.4 6.9,28.3 6.4,27 5.6,28.5 5,29.1 5.2,28.9 5.7,28.4 5.5,28.8 Z m 72.1,-3 c 0.2,0 0.3,0.1 0.5,-0.1 -0.3,-0.1 -0.7,-0.1 -1.1,-0.1 0.2,0.1 0.3,0.1 0.6,0.2 z m 8.2,1.3 c -0.1,-0.1 -0.2,-0.2 -0.3,-0.2 0,0 -0.1,0.1 -0.1,0.1 0.2,0.1 0.3,0 0.4,0.1 z M 28.5,50.6 c 0,0 0.1,0.3 0.2,-0.2 -0.1,-0.1 -0.2,0.2 -0.2,0.2 z M 7.1,29.7 c -0.3,-0.1 -0.4,-0.2 -0.7,0 0.2,0.1 0.4,0 0.7,0 z m 2.1,1.9 C 8.9,31.7 8.7,31.7 8.7,32.1 8.9,32 9.2,31.9 9.4,31.8 9.3,31.5 9.3,31.7 9.2,31.6 Z M 6.4,30.8 c 0.2,0 0.3,0.3 0.4,0 -0.1,-0.1 -0.3,0 -0.4,0 z"
       id="path9"
       style="fill:#ffffff;fill-opacity:1">
      <animateTransform
         attributeName="transform"
         type="translate"
         repeatCount="indefinite"
         dur="2s"
         keyTimes="0;1"
         values="-100 0;0 0" />
    </path>
    <path
       transform="scale(2)"
       fill="#ea1e00"
       d="m 64.4,74.4 c 0.3,0.3 0.2,0.3 -0.3,0.3 0,-0.4 0.1,-0.2 0.3,-0.3 z m -33,1 c -0.2,0.1 -0.3,-0.2 -0.5,0.1 0.3,0.2 0.6,0.1 0.8,-0.1 -0.1,-0.2 -0.1,0 -0.3,0 z M 84.9,36.9 c -0.3,0.2 -0.8,-0.1 -1.1,-0.5 0.1,0.2 0.1,0.6 0.3,0.9 -0.5,0.2 -0.2,0.6 0.2,0.7 0,-0.1 0,-0.3 0,-0.4 0.2,0.1 0.4,0.2 0.5,0.3 C 85,37.7 85,37.6 85.2,37.4 85.1,37.2 85,37 84.9,36.9 Z m 0.2,3.7 c 0,-0.6 -0.1,-2.1 -0.6,-2.4 -0.6,-0.4 0.5,2.1 -0.6,1.6 0,0.2 -0.1,0.5 0,0.7 -0.8,-0.3 -0.9,0.5 -1.4,0.9 0.3,0.3 0.4,0.6 0.6,0.9 0.3,-0.4 0.2,-0.9 -0.3,-1.2 0.2,0 0.4,-0.2 0.6,-0.2 0.2,0 0.6,0.2 0.6,0.2 0.2,-0.1 0.5,-0.4 1.1,-0.5 z M 83.7,41 c -0.4,-0.1 -0.7,0.2 -0.3,0.6 0.2,-0.4 0,-0.1 0.3,-0.2 0.1,-0.2 -0.1,-0.3 0,-0.4 z m 9.8,21.8 c 0.1,0.5 0.3,0.9 0.7,0.8 C 94.1,63.3 93.8,63 93.5,62.8 Z M 93,71.2 c -0.1,-0.1 -2.5,1.6 -2.9,2.1 0.8,0.5 2.9,-1.2 3.1,-2.1 -0.2,0.3 -0.3,0 -0.2,0 z m 2,-1.3 c -0.4,0.2 -0.6,0 -0.5,-0.4 0,0.1 -0.1,0.2 -0.1,0.3 0.1,-0.5 0.1,-0.8 -0.1,-1.1 -0.3,0.7 0.1,1.4 -0.7,2 0.3,0.3 0.3,0.4 -0.1,0.7 0.1,0 0.1,0.1 0.1,0.2 0.3,-0.3 1.4,-1.4 1.4,-1.7 z M 82,50.6 c 0.2,-0.2 0.3,-0.2 0.3,-0.5 -0.1,0 -0.3,-0.1 -0.4,-0.1 0,0.2 0,0.4 0.1,0.6 z m 0.4,0 c -0.3,-0.4 -0.2,0.1 -0.1,0.5 0.2,-0.3 0.3,-0.5 0.2,-0.9 0,0.2 -0.1,0.3 -0.1,0.4 z m 0.4,-0.9 c -0.1,0 -0.2,0 -0.3,0 0,0.1 0.2,0.4 0.2,0.5 -0.1,0 -0.1,0 -0.2,0 0.1,0.2 0.1,0.3 0.2,0.5 0.1,-0.2 0.1,-0.2 0,-0.5 0.1,0 0.2,0.1 0.2,0.1 0.1,-0.2 0,-0.4 -0.1,-0.6 z M 81,51 c 0.2,-0.3 0.3,-0.4 0.2,-0.8 -0.1,0.5 -0.4,0.8 -0.6,1.2 0.2,-0.1 0.3,-0.3 0.4,-0.4 z m 0.2,-2.4 c 0.1,0.2 0.1,0.5 0.3,0.3 0,0.4 0.3,0.6 0.6,0.6 0,0 0,-0.1 0.1,-0.1 0.1,0.2 0.2,0.3 0.4,0.4 0,-0.7 -0.6,-0.5 -0.8,-1 -0.2,-0.4 0.2,-0.9 0,-1.4 -0.5,-0.1 -0.6,0.3 -0.4,1 0,0 -0.1,-0.1 -0.1,-0.1 -0.2,0 -0.2,0.1 -0.1,0.3 z m 2.1,3.6 c 0.1,-0.5 0.1,-1.1 -0.3,-1.4 0,0.1 0,0.2 0,0.3 -0.4,0.2 -0.9,0.1 -0.9,0.8 0.7,-0.7 0.4,0.2 1,0.5 0,-0.2 0.1,-0.5 0.1,-0.7 0,0.3 0.1,0.4 0.1,0.5 z m -1.8,-2.6 c 0.1,-0.1 0.3,-0.1 -0.2,-0.3 0.1,0.1 0.2,0.2 0.2,0.3 z m 10.3,7.8 c 0.1,0.1 0,0.2 0.2,0.1 -0.1,-0.2 -0.2,-0.5 -0.3,-0.7 -0.1,0.2 0,0.3 0.1,0.6 z m -1.6,-0.1 c 0.4,-0.1 1.1,-0.5 0.6,-0.9 -0.1,0.4 -0.2,0.6 -0.4,0.3 -0.1,0 -0.5,0.2 -0.5,0.3 0,0.2 0.1,0.2 0.3,0.3 z m 0.7,-1.2 c 0.1,0.2 0.2,0.3 0.2,0.5 0.1,-0.5 -0.2,-0.8 -0.6,-0.8 0.2,0.1 0.3,0.2 0.4,0.3 z M 90.3,59 c -0.2,-0.4 -0.7,-0.7 -1,-1.6 0.1,0 0.2,0 0.3,0 -0.7,-0.7 -1.4,-1.7 -2.5,-1.8 -0.5,-0.1 -1,0.5 -1.3,0.3 -0.5,-0.2 -0.1,-1.4 -1.2,-0.8 0.3,0.4 0.6,0.5 0.9,0.6 -0.2,0 -0.3,0.1 -0.5,0.1 0.1,0.2 0.2,0.4 0.3,0.5 0.1,0 0.2,-0.2 0.2,-0.2 0.6,0.5 2,1 1,2 0.6,-0.3 0.7,0.4 1.2,0.3 0.4,-0.1 0.4,-0.5 0.6,-0.5 0.9,0 1.2,1 2,1.1 z m 2.9,-0.5 c -0.1,0.1 -0.2,-0.2 -0.2,0.1 0.3,0.2 0.2,0 0.2,-0.1 z m -0.8,-0.8 c 0,0 -0.1,-0.2 -0.2,-0.3 0,0.2 0.1,0.2 0.2,0.3 z m 0.5,0.3 c 0.1,0.1 0.1,0.1 0.2,0.2 -0.2,-0.2 -0.3,-0.3 -0.5,-0.4 0.1,0 0.2,0.1 0.3,0.2 z m 0.6,1.1 c 0.1,-0.2 0.1,-0.3 0,0 z m 0,-0.4 c 0,-0.2 0,-0.4 -0.2,-0.6 0,0.2 0.1,0.4 0.2,0.6 z M 81,45.9 c 0.1,-0.5 0.2,-1 -0.1,-1.3 -0.3,0.4 -0.3,0.9 0.1,1.3 z M 94.8,61 c 0,0 0.1,-0.2 0,-0.4 -0.1,0.2 0,0.5 0,0.4 z m 0,0.2 c 0.1,0.1 0,0.3 0.2,0.1 -0.1,-0.2 -0.2,-0.1 -0.2,-0.1 z M 29.5,76.3 c -0.4,-0.8 -0.5,-0.2 -0.7,-0.2 0.2,0 -0.3,0.2 -0.3,0.2 -0.2,0 -0.6,-0.3 -0.9,-0.4 0.9,0.9 1.9,1.2 2.6,0.7 -0.2,0 -0.4,-0.2 -0.7,-0.3 z M 89.6,64.4 c 0,-0.2 -0.2,-0.3 -0.1,-0.7 -0.2,0 -0.1,-0.1 -0.3,0 0.1,-0.8 -0.5,-1.1 -0.7,-1.7 -0.1,-0.5 0,-1 -0.2,-1.6 -0.1,0.1 -0.1,0.1 -0.2,0.2 0,-0.5 -0.1,-1.1 -0.2,-1.6 -0.5,0.9 -0.5,3.8 -1.7,2.2 -0.3,-0.5 -0.4,-0.2 -0.4,-0.8 0,-0.3 0.4,-0.5 0.4,-0.7 0,-0.1 -1.1,-0.4 -1.4,-0.5 0.3,0.3 -0.7,0.7 -0.8,1.5 -0.5,-0.2 -0.7,-0.4 -1.1,-0.2 -0.4,0.1 -0.7,0.9 -0.7,1.1 0,0 -0.1,0.1 -0.1,0.1 0,-0.1 0,-0.2 -0.1,-0.3 -0.4,0.8 -0.6,1.1 -1.3,1.4 -0.6,0.3 -1.1,0.4 -1.6,1 0,-0.1 0,-0.2 0,-0.3 -0.3,0.6 -0.5,1.1 -0.3,1.8 -0.1,-0.1 -0.1,-0.2 -0.2,-0.3 0,0.1 0,0.3 0,0.4 0,-0.1 -0.1,-0.1 -0.1,-0.2 0.1,1 0.1,1.7 0,2.7 0,0.4 -0.6,0.5 0,0.9 0.4,0.2 0.7,-0.3 1,-0.4 0.8,-0.2 1.4,-0.5 2.3,-0.7 1.4,-0.5 1.7,-0.2 2.1,1.1 0.2,-0.3 0.5,-0.6 0.8,-0.8 -0.1,0.4 -0.3,0.7 -0.6,1 0.2,-0.1 0.3,-0.2 0.5,-0.4 -0.1,0.2 -0.1,0.3 -0.2,0.5 0.5,0.2 0.5,2.1 1.5,0.9 0,0.1 -0.1,0.1 -0.1,0.2 1.1,1.1 5,-4.1 3.8,-5.8 z m -3.7,6.9 c -0.4,-0.2 -1,0.2 -0.7,0.8 0.2,0.6 0.9,-0.4 1.1,-0.9 -0.1,0 -0.2,0 -0.4,0.1 z m -61.3,-27 c 0,-0.2 0.2,-0.3 -0.1,-0.5 0,0.2 0.1,0.4 0.1,0.5 z m -0.4,0.6 c 0.1,0.1 0.1,0.2 0.1,0.4 0.1,-0.2 0.1,-0.3 0,-0.6 -0.2,-0.1 0,0.1 -0.1,0.2 z m 0.2,-1 c -0.2,0 -0.3,-0.1 -0.3,0.2 0.2,0 0.3,-0.2 0.3,-0.2 z m 11.8,13 c -1,-0.3 -1.6,-1.5 -2.7,-1.1 0,-0.7 -0.8,-0.9 -1.2,-0.6 0,-0.4 -0.4,-0.5 -0.5,-0.8 -0.1,-0.1 -0.1,-0.7 -0.2,-1 -0.3,-0.7 -0.6,-0.8 -1.2,-1.1 -0.6,-0.3 -0.6,-0.2 -1.1,-0.8 -0.3,-0.4 -0.6,-0.7 -1,-1 0.1,0 0.2,-0.1 0.3,-0.1 -0.9,-0.2 -1.7,0.6 -2.3,-0.6 -0.4,0.3 -0.4,0.8 -0.6,1.2 0,-0.3 0,-0.7 0,-0.9 0.4,-0.6 -0.1,-0.2 -0.5,0.1 -0.3,0.2 -0.7,0.9 -1,1 0,0 -1.6,-0.3 -1.6,-0.3 -0.8,-0.7 0.1,-1.4 -0.1,-2.2 -0.2,-0.8 -1.1,-0.3 -1.6,-0.5 0.2,-0.3 0.3,-0.7 0.3,-1.1 0.1,0 0.1,0 0.1,0.1 0.2,-1.2 0.5,-1.7 -0.7,-0.8 -0.6,0.5 -1.3,1.5 -1.8,0 -0.3,-0.8 0,-2.4 0.4,-3.1 0.7,-1.1 1.6,-0.5 2.3,-0.6 -0.1,-0.7 1.4,-0.4 1.6,-0.3 0.2,0.3 0.2,2.8 0.8,1.6 0.5,-1 -0.4,-1.7 0.5,-2.7 0.6,-0.7 2,-1.1 1.3,-2.2 0.1,0 0.1,0 0.2,0.1 0,-0.2 0,-0.3 0.1,-0.4 0,0.4 0,0.4 -0.1,0.8 0.3,-0.4 0.3,-0.4 0.3,-0.9 0.1,0.1 0.1,0.1 0.1,0.2 0.2,-0.3 0.4,-0.5 0.4,-0.7 0,0 0.4,-0.1 0.6,-0.1 -0.1,0 -0.3,0 -0.5,0 0.4,-0.2 0.8,-0.2 1.1,-0.4 -0.1,0 0,0 -0.2,0 -0.1,-0.9 1.4,-1.5 1.9,-1.4 -0.5,0.2 -0.4,0.3 -0.6,0.7 0.5,-0.1 1.4,-0.5 1.9,-0.9 0,-0.1 -0.1,-0.3 -0.1,-0.4 -0.6,1.2 -1.7,-0.1 -0.8,-0.7 -0.7,-0.6 -1.3,0.5 -2,0.8 0.5,-0.5 1.1,-1.2 1.7,-1.3 0.8,-0.2 1.5,0.2 2.2,-0.4 1.2,-0.9 0.1,-1.1 -0.6,-1.9 0.2,-0.5 -0.1,-0.9 -0.2,-1.5 -0.5,0.5 -1.8,1 -1.1,-0.3 -0.5,0 -0.6,-0.4 -1.2,-0.4 -1,0 -0.4,0.7 -1.2,1.3 0.6,0.8 -0.3,1.4 -0.9,1.5 0.6,1.6 -1.5,1.4 -0.5,-0.2 -0.8,0 -1.4,-1 -2.2,-0.7 0,-0.6 0.1,-0.4 -0.3,-0.7 0.5,-1.3 2.5,-2.2 3.5,-2.7 0.3,-0.1 1.4,-0.2 1.3,-0.9 -0.2,-1 -1.3,0.4 -1.7,0.6 0.1,-0.2 0,-0.2 0.1,-0.5 -0.2,0 -0.2,-0.2 -0.6,0 0.1,-0.1 0.1,-0.2 0.2,-0.3 -0.1,0 -0.2,0 -0.4,-0.1 0.7,-0.6 -0.4,-1 -0.8,-0.1 0.5,0.5 -0.1,0.7 -0.5,1 0.1,-0.1 0.1,-0.2 0.2,-0.3 -0.5,-0.2 -1,0.1 -1.6,0 -0.4,-0.1 -0.7,-0.4 -1.2,-0.1 0,0 0.1,0.1 0.1,0.1 -0.4,0.1 -1.1,0.1 -1.7,0 0.1,-0.1 0.3,-0.1 0.4,-0.2 -0.6,-0.3 -1.5,-0.7 -2.1,-0.3 0.1,-0.1 0.1,-0.2 0.2,-0.3 -0.4,0.3 -0.9,0 -1.4,0 -0.6,0.1 -1.2,0.4 -1.8,0.4 -0.6,0 -2.5,-0.4 -2.7,-0.6 -1.3,-0.2 -2.7,0.3 -4,0.8 0.3,0.2 0.3,0.4 0.4,0.8 -0.2,0 -0.3,0 -0.5,0 0.1,-0.1 0.1,-0.1 0.2,-0.2 -0.4,0 -0.9,0.2 -1.3,0.3 0.2,0.7 0.9,0.5 1.4,0.3 C 9.1,29.4 8.5,29.3 7.9,29.5 7.4,29.7 6.5,30.8 7.5,30.6 7.4,30.7 7.4,30.9 7.2,31.1 7.4,31 7.5,31 7.7,31 c 0,0.1 0,0.1 -0.1,0.2 0.1,0 0.1,-0.1 0.2,-0.1 0,0.1 0,0.1 0,0.2 0.2,-0.1 0.4,-0.1 0.6,-0.2 -1,0.9 -2.2,1 -3.2,1.7 2.1,-0.4 3.5,-1.8 5.4,-2.6 -0.3,0.1 -0.7,0.4 -0.8,0.8 0.8,-0.2 1.2,-0.4 1.9,-0.4 0.8,0.1 1.3,0.9 2.1,0.8 -0.1,0.6 -0.1,1.8 0.3,2.2 -0.6,0.8 1.3,1 0.4,2 -0.2,-1.2 -0.9,1 -1.2,1.6 -0.4,0.8 -0.5,2 -0.2,2.8 0.2,0.4 1.7,3 0.9,3.3 0.6,0.7 0.6,1.2 1,2 0.6,-0.7 -1.1,-2.5 -0.6,-3.6 0.4,0.2 0.8,1.8 1,2.3 0.2,0.4 0.6,1.1 0.8,1.6 0.1,0.7 -0.2,0.6 0.2,1.3 0.2,0.4 0.9,0.7 1.3,0.9 0.5,0.3 1,0.1 1.3,0.2 0.8,0.3 1.4,1.1 2.1,1.3 0,0 -0.1,0 -0.1,0 0.4,0.5 0.5,0.9 0.7,1.3 0.1,-0.1 0.1,-0.1 0.1,-0.2 0.4,0.6 0.9,1.2 1.4,1 -0.1,-0.8 0.3,-0.4 0.5,-0.1 0.3,0.5 0.3,1.3 0.2,1.7 -0.2,0.7 -1.6,1.6 -0.9,2.5 0,-0.1 0.1,-0.1 0.1,-0.2 0,0.6 -0.4,0.8 -0.3,1.5 0.1,0.3 0.7,1.2 0.9,1.6 0.3,0.7 0.5,1.6 1,2.1 0.5,0.6 1.3,0.7 1.6,1.4 0.3,0.7 0.2,2 0.2,2.8 0,1 0.2,1.8 0.2,2.7 0.1,1.2 -0.5,3.5 0.3,4.4 0,-0.2 0,-0.3 0,-0.5 0.3,0.3 0.2,0.4 0.3,0.9 -0.1,0 -0.2,-0.1 -0.3,-0.1 0,0.5 0,0.6 -0.1,1 0.1,0 0.3,0.1 0.4,0.1 -0.8,1.1 0.7,2.6 1.6,2.7 -0.1,-0.5 0.1,-0.6 0.6,-0.6 -0.6,-0.4 -0.2,-0.6 -0.2,-1 0,-0.2 0.3,-0.7 0.3,-0.7 0,-0.2 -0.3,-0.5 -0.3,-0.4 0,-0.1 -0.3,-0.3 -0.3,-0.6 0,-0.2 0.4,-0.2 0.4,-0.2 0.1,-0.5 -0.2,-0.7 0.3,-1 0,-0.1 -0.1,-0.1 -0.1,-0.2 -0.8,0 0,-0.5 0,-0.4 0.1,-0.3 0.5,-0.3 0.1,-0.9 1.8,0.4 1.2,-1.1 0.8,-2 1,0.9 1.4,0 1.9,-1 0.6,-1.3 0.3,-2.4 1.5,-3.2 0.7,-0.5 0.7,-0.1 1.1,-1 0.3,-0.8 0.3,-1.4 0.4,-2.2 0,-0.8 1.2,-2.2 0.8,-3.6 z m -12,-30.7 c -0.2,0 -0.3,-0.1 -0.5,0 0.2,0.4 0.2,0.1 0.5,0 z m -1.8,-0.9 c -0.2,0.1 -0.4,0.2 -0.5,0.3 0.4,0.1 0.8,0 1.2,0 -0.2,0 -0.4,0.2 -0.6,0.2 0.5,0 1.7,0 2,-0.5 -0.2,0 -0.3,0 -0.4,0 0,-0.1 0,-0.2 0.1,-0.3 -0.4,0.1 -0.3,-0.1 -0.4,0.4 -0.5,0.1 -1,-0.2 -1.4,-0.1 z m 1.8,2 c -0.5,-0.1 -0.6,-1.9 -1.2,-0.5 0,-0.6 -0.7,-0.4 -1.2,-0.3 0.1,-0.1 0.1,-0.1 0.2,-0.2 -0.5,-0.1 -1.1,0.2 -1.5,0.5 0.2,0 0.4,0.1 0.7,0.1 -0.2,0 -0.4,0.1 -0.6,0.1 0.3,0.2 0.8,0.1 1.2,0.2 -0.4,0 -0.8,0.1 -1.2,0.1 0.6,0.8 3,0.6 3.6,0 z M 24,24.9 c 0,-0.3 -0.3,-0.1 -0.7,0 0.3,0.1 0.5,0 0.7,0 z m -2.4,0.5 c 0.4,-0.1 0.9,-0.1 1.2,-0.5 -0.6,0 -1.2,0.2 -1.8,0.5 0.2,0 0.4,0 0.6,0 z m 10.8,9.4 c -0.1,0 -0.2,0.2 -0.3,0 0,0 0.1,-0.1 0.1,-0.1 -0.1,0 -0.3,0 -0.4,0 0.2,-0.2 0.3,-0.5 0.5,-0.7 -0.6,0.1 -1.2,1.1 -1.3,1.6 0.3,0 0.7,0 1,0.1 -0.1,0.1 -0.1,0.1 -0.2,0.2 0.1,-0.1 0.4,-0.2 0.5,-0.3 0,0.1 0,0.2 -0.1,0.4 0.4,0 0.5,-0.3 0.4,-0.7 -0.1,0 -0.1,0 -0.2,0.1 0,-0.1 0.1,-0.2 0.1,-0.3 0.1,-0.2 0,-0.2 -0.1,-0.3 z M 14,35 c 0.7,0.6 0.5,-0.1 0.2,-0.5 -0.5,-0.4 -0.7,0.1 -0.2,0.5 z m 5.6,-7.9 c 0.8,-0.1 1.5,-0.7 2.3,-0.8 -0.9,-0.9 -1.9,0 -2.6,0.5 0.2,0 0.2,0.2 0.3,0.3 z m 8.1,2.3 c -0.8,-0.6 -0.7,-0.5 -1.6,0.2 0.1,0 0.4,0.2 0.3,0.2 0.6,-0.4 1.2,-0.1 1.3,-0.4 z m -14.4,3.7 c -0.2,0.2 -0.3,0.4 0,0.7 0.1,-0.2 0.2,-0.5 0.3,-0.7 -0.2,0 -0.2,0 -0.3,0 z m 14.2,-3 c 0.1,0 0.1,0.3 0.2,-0.1 -0.1,0 -0.1,0.1 -0.2,0.1 z m 2.3,5.9 c -0.1,0 0,-0.3 -0.2,-0.1 0.3,0.2 0.2,0.2 0.6,0.1 -0.1,0.1 -0.3,0.1 -0.4,0 z m -3.1,-6 c 0.2,0 0.3,0.1 0.6,-0.2 -0.3,0 -0.4,0.1 -0.6,0.2 z m 3.8,5 c -0.2,-0.2 -0.3,-0.3 -0.6,-0.3 0.2,0.2 0.4,0.2 0.6,0.3 z M 27,25.3 c 0,0.2 0.1,0.2 0,0.5 0.7,0.2 2.2,0.4 2.7,-0.2 -0.7,-0.3 -1.4,0.1 -2.1,-0.2 0,0 0.1,-0.1 0.1,-0.1 -0.4,-0.2 -0.8,-0.3 -1.3,-0.1 0.3,0.1 0.4,0.1 0.6,0.1 z m -0.2,-0.4 c 0.2,0 0.3,0 0.5,0 -0.1,-0.1 -0.4,0 -0.5,0 z m 0.7,-0.5 c 0.1,0 0.2,0 0.4,0 -0.1,0.1 -0.2,0.1 -0.3,0.2 0.6,0.4 1.2,0 1.8,-0.2 -0.5,-0.6 -1.3,-0.6 -2,-0.2 -0.1,0.2 0,0 0.1,0.2 z m -1.2,1.4 c 0.2,0 0.3,0.1 0.5,-0.1 -0.2,-0.1 -0.7,-0.3 -0.5,0.1 z m 0.7,-1 c -0.1,-0.2 -0.1,-0.3 -0.5,0 0.3,0.1 0.3,-0.1 0.5,0 z m 2.7,1.6 c 0.1,0 0.3,0 0.5,0 -0.2,-0.3 -0.6,-0.4 -0.9,-0.2 0.1,0.3 0.1,0.2 0.4,0.2 z M 26.9,26 c -0.5,-0.1 -0.9,0.1 -1,0.7 0.5,-0.1 1,-0.3 1.4,-0.6 C 27.1,26.1 27,26 26.9,26 Z m 4.6,1.3 C 31.1,27 30.8,26.8 30.3,26.9 30.1,26.3 29.4,26.5 29,26.7 c 0.3,-0.8 -0.6,-0.5 -1,-0.2 0,-0.1 0,-0.1 -0.1,-0.2 0.1,-0.1 0.2,-0.1 0.3,-0.2 -0.6,0 -1.1,0.2 -1.4,0.8 0.1,0 0.2,0 0.3,0 0,0.1 -0.1,0.1 -0.2,0.2 0.6,0.3 2.7,0.1 2.5,0.6 0.8,0.1 0.7,0.4 0.2,0.9 -0.3,0.3 -0.9,0.1 -1.3,0.6 0.5,0.2 0.9,-0.2 1.4,0.3 0,0 -0.1,0.1 -0.1,0.1 0.4,0.3 0.8,0.5 1.2,0.5 -0.1,-0.2 -0.2,-0.5 -0.4,-0.7 1.4,1.5 0.5,-0.9 0.4,-0.7 0.3,-0.6 0.9,0.8 1.6,-0.4 -0.5,-0.1 -0.8,-0.5 -1.3,-0.6 0.2,-0.1 0.3,-0.1 0.5,-0.2 0,0 -0.1,-0.1 -0.1,-0.2 z m -5.8,-2.6 c 0.2,0.1 0.4,0.1 0.6,0.1 -0.1,-0.4 -0.5,-0.5 -0.9,-0.3 0.1,0 0.1,0 0.2,0.1 -0.1,0 -0.2,0.1 -0.3,0.1 0.1,0 0.2,0 0.4,0 z M 29,24 c 0.5,0.1 0.9,0.1 1.4,0.1 -0.3,0.1 -0.7,0.1 -1,0.1 0.1,0.2 0,0.1 0.2,0.3 -0.2,0.1 -0.5,0.2 -0.8,0.3 0.2,0.1 0.3,0.2 0.4,0.3 -0.4,-0.2 -0.8,0 -1.1,0.3 0.7,0.1 1.9,0.3 2.5,-0.2 -0.1,0 -0.2,0 -0.4,0 0.4,-0.3 1,-0.4 1.2,-0.7 -0.1,0 -0.2,0 -0.3,0 0.9,0 1.8,-0.4 2.7,-0.6 -0.1,0 -0.3,0 -0.4,0 0.4,-0.1 0.9,-0.1 1.3,-0.3 -1.6,-0.4 -4.4,-0.4 -5.9,0.3 0.1,-0.1 0.1,0 0.2,0.1 z m 0.5,4.2 c -0.2,-0.3 -0.3,-0.3 -0.5,0.2 0.3,0 0.4,-0.1 0.5,-0.2 z m -5.1,-3.6 c -0.2,0 -0.4,-0.1 -0.6,0.1 0.2,0 0.4,-0.1 0.6,-0.1 z m 0.6,2.8 c -0.2,0 -0.4,0 -0.7,0.2 0.3,0.2 0.6,0.2 0.9,0.1 0,-0.3 -0.1,-0.2 -0.2,-0.3 z m -0.6,-0.9 c 0.4,0.5 0.9,0.5 1.3,0 -0.1,0 -0.2,-0.1 -0.2,-0.1 0.2,-0.1 0.2,-0.1 0.3,-0.3 -0.4,0 -0.9,-0.1 -0.9,0.3 -0.2,0 -0.3,0.1 -0.5,0.1 z m 0.9,-0.8 c 0.4,0.2 0.9,-0.1 0.9,-0.5 -0.4,0 -0.8,0 -1.1,0.4 0.4,-0.2 0.2,0.1 0.2,0.1 z m 52.8,21 c -0.7,0.3 -0.2,0.9 0,0.7 0.3,-0.4 0.3,-0.6 0,-0.7 z m -53.4,0.1 c 0.2,0 0.3,0 0.4,-0.2 -0.8,-0.5 -2,-1.9 -3,-0.7 0.3,-0.1 0.6,-0.2 0.9,-0.3 0,0 -0.1,0.1 -0.1,0.1 0.6,0.3 1,0.3 1.4,0.8 -0.1,0.1 -0.1,0.2 -0.2,0.2 0.2,0 0.4,0.1 0.6,0.1 z m 31,-6.3 c -0.1,0.1 -0.2,0.1 -0.4,0.1 0.4,0.2 0.3,0.1 0.6,-0.2 0,0 -0.1,0 -0.2,0.1 z m -6.2,-7.7 c 0.1,-0.4 0.2,-0.6 -0.3,-0.4 0,0.3 0.1,0.3 0.3,0.4 z m -0.6,5.3 c 0,-0.3 0.1,-0.4 0,-0.7 -0.3,0.3 -0.1,0.4 0,0.7 z m -3.8,-5.5 c 0.1,-0.1 0.1,-0.3 0.2,-0.1 0,0.1 0.4,0.4 0.4,0.6 0,0.4 -0.6,-0.1 -0.3,0.6 -0.1,0 -0.2,0.1 -0.3,0.1 0.1,0 0.3,0.2 0.5,0.2 -0.2,0.1 -0.4,0.3 -0.6,0.5 0.7,0 1.9,0 1.9,-1 -0.6,-0.2 -0.6,-1 -1.2,-1.2 0.2,-0.2 0.2,-0.5 0.3,-0.6 -0.2,0 -0.3,0 -0.5,0 0.1,-0.1 0.2,-0.3 0.3,-0.4 -0.8,-0.1 -0.9,0.7 -0.7,1.3 z m 8.2,7.9 c -0.2,0 -0.2,0.1 -0.4,-0.1 0,0.1 0,0.1 0,0.2 0.3,0.1 0.5,0.2 0.8,0 -0.2,-0.1 -0.2,-0.1 -0.4,-0.1 z M 41.5,27.3 c -0.3,0 -0.6,0 -0.9,0 0,-0.1 0.2,-0.4 0.2,-0.4 0.3,0.3 0.4,0.3 0.8,0.3 -0.2,-0.3 -0.2,-0.4 -0.6,-0.6 0.1,0 0.3,0 0.5,0 -0.1,-0.1 0,-0.2 -0.2,-0.4 0.3,0 0.5,-0.1 0.7,-0.2 0,0 0,0 -0.1,0 0.2,0 0.3,0 0.5,0 -0.1,-0.1 -0.2,-0.2 -0.2,-0.3 0.3,-0.2 0.3,-0.2 -0.1,-0.5 0.2,0 0.5,-0.1 0.7,-0.1 -0.3,-0.4 -0.2,-0.7 0.3,-0.9 -0.2,0 -0.3,0 -0.5,0 0.5,0 1,-0.2 1.6,-0.3 -0.6,-0.3 -1.5,-0.1 -2.1,0 0.1,-0.1 0.2,-0.1 0.2,-0.2 -0.6,-0.1 -1.3,-0.1 -1.9,-0.1 0.7,0 1.5,0.1 2.2,-0.1 -1.4,-0.2 -3.8,-0.7 -5,0.1 0.1,0 0.3,0.1 0.4,0.1 -1.6,-0.3 -3.3,-0.2 -4.8,0.4 0.2,0 0.3,0.1 0.5,0.1 -0.6,0.3 -1.4,0.1 -1.9,0.5 0.4,0.1 0.8,0.2 1.2,0.2 -0.3,0 -0.7,0 -1,0.1 0.2,0.2 4.1,0.7 2.5,1.7 0.3,0.1 0.5,0.2 0.8,0.4 -0.9,-0.5 -1,0.9 0,0.2 -0.6,1 -1.2,0.7 -0.8,2.1 0.2,0.7 0.5,0.9 0.9,1.1 0.7,0.4 0.6,0.2 1.1,-0.4 0.1,-0.1 0.4,-0.9 0.6,-1.1 0.4,-0.3 0.8,-0.2 1.1,-0.4 1.1,-0.4 2.2,-0.7 3.3,-1.3 z M 25.3,47.4 c 0.3,0.1 0.4,-0.1 0.6,0.3 0.2,-0.4 0.6,-0.3 0.9,-0.4 -0.3,-0.4 -0.9,-0.7 -1.4,-0.4 0.2,0.2 0.1,0.2 0.3,0.4 -0.2,0 -0.3,0.1 -0.6,0 -0.1,0.3 0,0.1 0.2,0.1 z m 55.5,10.9 c 0.1,0 0.2,-0.1 0.3,-0.1 C 81,58 80.7,58 80.5,58.4 c 0.1,0 0.2,-0.1 0.3,-0.1 z m 1.7,-1.7 c -0.2,-0.4 -0.3,-0.7 -0.5,-1.1 0.2,-0.1 0.3,-0.3 0.5,-0.3 0,-0.1 0,-0.1 0,-0.2 -0.4,0.2 -1.4,0.1 -0.8,-0.4 0.5,-0.4 1.2,0.5 1.3,-0.5 -0.4,0.6 -0.9,0 -1.3,0.2 -0.3,0.2 -0.5,1.1 -0.5,1.5 0,0 0.3,1.2 0.2,1.2 0.4,0.2 0.2,-0.9 0.4,-1.2 0,0.4 0.1,0.6 0.2,0.9 0.1,-0.1 0.2,-0.1 0.3,-0.2 -0.1,0.3 0,0.3 0,0.5 0.2,-0.1 0.1,-0.2 0.2,-0.4 z m -4,-1.3 c 0.1,0.8 1.5,1.1 1.9,1.1 0.1,-0.7 0.3,-1.8 0.9,-2 -0.6,-0.8 -0.4,-1.3 0,-1.8 -0.4,-0.2 -0.5,-0.6 -0.8,-0.5 -0.3,0.1 -0.6,0.9 -0.8,1.1 -0.6,0.7 -1.8,0.8 -1.2,2.1 z m 7.3,1.8 c -0.1,0.1 -0.2,0 -0.2,0.5 0.2,-0.2 0.1,-0.4 0.2,-0.5 z M 83.6,56 c -0.1,0 -0.2,0 -0.3,0 0.3,0.5 0.2,0.1 0.3,0 z m -2,2.9 c -0.1,-0.2 -0.1,-0.4 -0.5,-0.3 0.2,0.2 0.3,0.2 0.5,0.3 z m 0.7,-0.7 c -0.1,-0.2 -0.5,-0.1 -0.8,0.1 0.2,0.1 0.5,0 0.8,-0.1 z M 78.7,58 c 0.5,0.1 1,0.2 1.5,0.1 -0.6,-0.3 -2.6,-1.5 -3,-0.6 0.5,0.2 1,0.3 1.5,0.5 z m -1.3,-1.5 c 0.3,-1 -2,-4.1 -3.1,-3.9 0.4,0.9 1,1.6 1.5,2.5 0.2,0.3 1.7,3.2 1.6,1.4 z m 6.8,-0.4 c 0.2,0.1 0.3,0 0.5,0.2 -0.2,-0.5 -0.6,-0.6 -0.9,-0.2 0.2,0 0.3,0 0.4,0 z m -0.3,-1 c 0.1,-0.4 0.3,-0.8 -0.1,-1.2 -0.1,0.4 -0.1,0.8 0.1,1.2 z m -1.2,3.7 c 0.2,-0.3 0.6,-0.5 0.9,-0.7 -0.5,0 -1,0.2 -1.2,0.8 0.1,0 0.2,0 0.3,-0.1 z M 44.1,33.6 C 44,33.7 44,33.9 43.9,34 c 0.4,0.1 1.4,-0.5 1.1,-1 -0.3,-0.7 -1,0 -0.9,0.6 z m -2.3,-4 c 0.5,0.1 1.1,-0.1 1.5,-0.5 0,-0.1 -0.2,-0.4 -0.2,-0.5 -0.6,0.1 -1.9,-0.2 -2.3,0.3 0.2,0 0.3,0.1 0.5,0.1 -0.1,0 -0.2,0.1 -0.4,0.2 0.2,0.1 0.3,0.1 0.5,0.2 -0.1,0.1 -0.2,0.1 -0.2,0.2 0.2,-0.1 0.4,-0.1 0.6,0 z m 6.9,8.9 c 0.1,1.7 0.3,-1.3 0,0 z m 1.8,0.9 c -0.2,0 -0.4,0.1 -0.6,0 0.1,0.3 0.4,0.5 0.7,0.6 0.1,-0.5 0,-0.5 -0.1,-0.6 z m -26.4,7.9 c -0.1,0.1 -0.2,-0.1 -0.2,0.1 0.3,0.2 0.3,0.2 0.6,0.1 -0.1,-0.2 -0.2,-0.1 -0.4,-0.2 z M 70,51 c -0.1,-0.1 -0.1,-0.1 -0.2,-0.2 -0.5,1.9 1.1,1.5 0.2,0.2 z m -9,9.2 c 0,-0.2 -0.1,-0.4 -0.2,-0.6 -0.1,0.3 -0.3,0.5 -0.4,0.7 -0.1,0.8 -0.9,0.8 -1.1,1.4 -0.2,0.4 0.1,0.7 0,1.1 -0.1,0.4 -0.3,0.6 -0.4,1 -0.1,1.2 0.5,1.5 1.1,0.7 0.5,-0.7 0.9,-2.6 0.9,-3.5 0,0.1 0.1,0.2 0.1,0.2 0.1,-0.3 0,-0.6 0,-1 z M 74.3,48.1 c -0.9,0.8 -1,-2.4 -2,-2.6 0,0.2 0,0.2 0,0.4 -0.3,-0.1 -0.5,0 -0.9,0.1 0.1,0.9 -1.3,1.5 -1.5,2.2 -0.2,0.6 -0.2,2.1 -0.3,2.7 -0.1,0.1 -0.3,0.4 -0.5,0.5 -1,-1.2 -1.5,-3.8 -1.8,-5.4 -0.6,0.6 -1.1,-0.6 -1.6,-1 -0.5,-0.5 -0.4,-0.4 -1.1,-0.5 -0.5,-0.1 -0.9,0.1 -1.3,-0.1 -0.4,-0.2 -0.5,-0.6 -0.8,-0.7 -0.3,-0.1 -0.5,0.2 -1,0 -0.7,-0.3 -0.8,-1.5 -1.5,-1.1 0.1,0.9 0.8,1.3 1,2.1 0,-0.2 0.1,-0.4 0.1,-0.5 0.1,1.3 1,0.8 1.4,-0.1 -0.1,0.9 0.5,0.7 0.8,1.1 0.4,0.8 0.2,0.6 -0.1,1.2 -0.4,1 -0.6,1.2 -1.5,1.7 -0.6,0.4 -2,1.9 -2.6,1.1 -0.3,-0.4 -0.1,-0.9 -0.2,-1.3 -0.2,-0.5 -0.7,-1 -0.9,-1.4 -0.4,-0.8 -1.8,-3 -1.6,-3.7 0,0.3 -0.2,0.5 -0.2,0.7 -0.2,-0.3 -0.4,-0.5 -0.5,-0.9 0.1,0.8 0.6,1.5 0.9,2.2 0.3,0.7 0.4,1.4 0.7,2.1 0.3,0.7 2,2.5 1.7,3 0.5,0.9 1.8,0.2 2.4,-0.1 0.1,3.4 -3.7,4.9 -3.4,7.8 0.1,1.4 0.7,2.7 -0.3,3.9 -0.7,0.8 -1,0.7 -1.1,1.7 0,0.5 0.2,0.8 -0.1,1.3 -0.1,0.2 -0.6,0.3 -0.7,0.5 0,0.1 0,0.5 -0.1,0.7 -0.2,0.5 -0.5,1.1 -0.9,1.5 -0.5,0.6 -0.9,0.8 -1.4,1 -0.2,0.1 -1.4,0.4 -1.5,0.4 C 51.3,68.4 51.7,67.9 51.6,67.4 51.4,66.6 51,66 50.8,65.2 50.6,64.3 50.6,63.6 50.3,62.7 50,61.9 49.8,61.4 50.1,60.5 c 0.3,-1.4 0.5,-2.2 0.1,-3.5 -0.3,-1 -0.9,-1.5 -0.9,-2.5 0,-0.8 0.3,-1.3 -0.2,-1.9 -0.9,0.6 -1.1,-0.8 -2.2,-0.5 -0.7,0.2 -1.9,0.8 -2.6,0.6 -1.5,-0.3 -2.2,-3.1 -2.8,-4.2 0.8,-0.8 0.2,-2.2 0.4,-3 0.1,-0.4 0.4,-1.2 0.6,-1.5 0.4,-0.6 0.9,-0.7 1.2,-1.3 0.5,-0.8 0.3,-1.3 1,-2 0.8,-0.9 0.3,-0.3 1.4,-0.5 0.9,-0.1 2.7,-1.4 3.4,-0.6 0.1,0 0.2,-0.1 0.2,-0.1 -0.2,0.8 -0.3,1.2 0.3,1.7 0.5,0.4 1.7,1.1 2.2,0.8 0.1,0 0,-0.6 0.5,-0.7 0.2,-0.1 0.7,0.4 0.9,0.5 0.5,0.2 1.7,-0.1 1.9,0.3 0.9,0.2 1,-1.5 1,-2.3 -0.6,0 -1.4,0.3 -1.9,0.1 -1.2,-0.5 -0.9,-1.5 0,-1.9 0.4,-0.2 1.1,-0.3 1.6,-0.3 0.4,0 1,0.7 1.4,0.3 0.6,-0.6 -0.9,-1.3 -1.3,-1.6 0.3,-0.4 0.2,-0.2 0.2,-0.5 0.1,-0.1 0.2,-0.1 0.4,-0.2 -0.4,-0.1 -1.6,0.5 -0.6,0.6 -0.4,0.4 -0.8,0.5 -1.1,0.1 0.1,-0.1 0.2,-0.1 0.3,-0.2 -1,-0.9 -1.9,1.4 -1,1.8 -0.2,0.1 -0.5,0.3 -0.7,0.5 -0.2,-0.4 -0.3,-0.3 -0.7,-0.2 0.1,0.1 0.1,0.1 0.2,0.2 -0.3,-0.1 -0.2,0.1 -0.4,-0.1 0,0.5 0.2,0.7 0.4,1.1 -0.1,0 -0.2,-0.1 -0.3,-0.1 0.1,0.2 0.1,0.2 -0.1,0.2 0,0.1 0.1,0.2 0.1,0.4 -1,0 -1,-1.6 -1.3,-2.1 -0.3,-0.5 -1.4,-1.3 -1.6,-1.2 -0.1,-0.2 0,-0.2 0,-0.3 -1.3,0 1.2,2 1.3,2.3 -0.7,-0.5 -0.1,0.3 -0.7,0.8 0.3,-1 -0.8,-1.3 -1.3,-1.8 -0.6,-0.6 -0.2,-0.5 -0.9,-0.6 -0.5,-0.1 -1.1,0.5 -1.3,0.7 -0.8,0.6 -0.7,1.7 -1.5,2.2 -0.8,0.5 -1.1,-0.4 -1.8,-0.1 -0.1,-0.5 -0.2,-2.3 0.1,-2.6 0.4,-0.5 1.5,0.4 1.9,-0.1 0.7,-0.8 -0.5,-1.5 -0.8,-2 0.3,0 0.5,-0.1 0.8,0 0,-0.1 -0.1,-0.3 -0.1,-0.4 0.5,0.3 0.9,-0.3 1.2,-0.6 0.3,-0.3 0.8,-0.7 1,-0.9 0.1,-0.2 0.3,0.2 0.4,-0.1 0,0 -0.1,-0.3 -0.1,-0.4 0.2,-0.4 -0.2,-0.8 0.5,-1 0,0.1 0.1,0.4 0.1,0.5 -1.1,0.9 1.1,0.8 1.5,0.7 0.6,-0.1 0.7,0.1 1.1,-0.3 0.2,-0.2 -0.2,-1.4 0.7,-0.6 0,-0.2 0,-0.3 0,-0.5 -0.2,-0.1 -0.1,-0.1 -0.3,-0.3 0.5,-0.2 0.9,0 1.3,-0.3 -0.6,-0.4 -1.5,0.5 -1.9,-0.3 -0.4,-0.7 0.2,-1.2 0.8,-1.5 -0.5,-0.8 -0.9,0.1 -1.2,0.5 -0.7,0.9 -0.3,0.8 -0.4,1.8 0,0.2 -0.6,1.4 -0.9,1.3 -0.4,-0.1 -0.7,-1.2 -1,-1.4 -0.3,-0.1 -1.5,0.8 -1.2,-0.8 0.1,-0.6 1.1,-1 1.6,-1.5 1,-1.1 2.6,-2.5 4.1,-1.6 -0.1,0 -0.2,0.1 -0.3,0.1 0.4,0.2 2.3,0.3 2.6,0.9 0.4,1 -1.2,0.3 -1.6,0.4 0.5,0.3 0.5,0.9 1.1,1 -0.1,-0.1 -0.1,-0.2 -0.2,-0.3 0.2,0 0.6,0 0.9,0 -0.1,-0.1 -0.1,-0.2 -0.2,-0.3 0.3,-0.3 0.6,-0.4 0.9,-0.2 0,-0.3 -0.1,-0.6 -0.3,-0.9 0.4,0 0.6,0.1 0.8,0.3 -0.1,0 -0.2,0 -0.3,0 0.4,0.6 1.1,-0.3 1.9,-0.4 -0.1,0.1 -0.1,0.1 -0.2,0.2 0.5,0 1.2,-0.1 1.6,-0.3 -0.1,-0.1 -0.2,-0.1 -0.3,-0.2 0.6,-0.2 1.5,0.2 2.1,0.5 0,-0.1 0.1,-0.1 0.1,-0.2 -0.7,-0.3 -1.2,-1.5 -0.2,-1.4 0.5,0 1.4,1.7 1,2.2 0.4,0 0.5,-0.1 0.6,-0.5 -0.4,-0.4 -0.6,-0.8 -1,-1.2 0.1,-0.1 0.2,-0.1 0.3,-0.2 -0.1,-0.1 -0.1,-0.2 -0.2,-0.2 0.2,0.2 0.4,0.4 0.6,0.6 -0.1,-0.1 -0.1,-0.2 -0.2,-0.2 0.4,-0.2 0.8,-0.2 1.2,0 -0.3,-0.2 -0.3,-0.4 -0.5,-0.6 0.4,-0.1 0.9,-0.1 1.3,-0.1 -0.1,-0.1 -0.2,-0.1 -0.3,-0.2 0.6,-0.7 1.8,-0.5 2.7,-0.6 0.1,-0.4 0.5,-0.5 0.9,-0.3 0.2,-0.4 0.1,-0.4 0,-0.4 0.7,0.2 1.8,-0.1 2.3,0.6 -0.2,0.1 -0.5,0.3 -0.7,0.4 1.1,0.1 2.1,0.5 3.2,0.4 -0.1,-0.1 -0.1,-0.2 -0.2,-0.2 1.1,0 1.5,0.7 2.5,1 0,-0.1 -0.1,-0.2 -0.1,-0.4 0.6,0.2 1.2,0.1 1.8,0.1 -0.1,-0.1 -0.3,-0.2 -0.4,-0.3 0.5,-0.3 1.7,-0.1 2.3,0.1 0.7,0.2 1.4,0.2 2.1,0.4 1.1,0.2 2.5,0.9 3.6,0.7 -0.2,-0.1 -0.3,-0.2 -0.5,-0.4 1.8,0.3 2.5,0.3 3.9,1.8 -0.2,0 -0.2,0.1 -0.5,0.1 0.4,0.2 0.9,0.4 1.2,0.8 -0.6,-0.2 -1.3,0.2 -1.3,0.9 -0.5,-0.4 -1.1,0 -1.6,0 0,0.9 0.6,0.7 1,1.4 -0.1,0 -0.1,0 -0.2,0 0.1,0.2 0.2,0.3 0.3,0.5 -0.1,0.1 -0.2,0.1 -0.3,0.2 0.1,0.1 0.1,0.3 0.2,0.4 -0.1,0 -0.2,0.1 -0.3,0.1 0.2,0.4 0,0.4 0,0.7 -0.7,-0.7 -1.6,-1.6 -1.8,-2.6 0.5,-0.2 1,-1.7 0.2,-1.7 0.2,1 -0.4,0.2 -0.7,0.3 -0.4,0.2 -1.1,0.3 -0.3,0.9 -0.6,0.3 -1.3,-0.1 -2,0 -1.2,0.1 -1.2,0.4 -1.8,1.7 1.2,0.2 2.2,0.4 2.5,2.1 0.1,0.6 0.1,1.6 -0.2,2.1 -0.4,0.5 -0.6,0.3 -0.9,0.6 0,0 -0.4,0.9 -0.4,0.9 0.1,0.5 0.3,0.4 0.6,0.9 1.1,1.9 -0.9,1.2 -0.5,0.3 -0.2,-0.2 -0.7,-0.8 -0.7,-0.8 -0.4,-0.2 -0.5,-0.6 -1.1,0 0.4,-1.3 -0.9,-0.4 -0.9,0 0,0.9 1.3,0.4 1.6,0.8 -1.4,0.4 0.5,2.1 0.6,2.8 0.2,1.5 -0.7,2.5 -1.6,3.1 -0.3,0.2 -0.4,0.3 -0.8,0.4 -0.1,0 0.1,0.4 -0.1,0.4 -0.1,0 -0.2,-0.3 -0.2,-0.3 -0.1,0 -1,-0.5 -1,0.7 0,0.8 1.1,1.3 1.3,2.1 0.2,1.1 -0.4,1.4 -1,2.1 0,-0.5 -0.9,-1.6 -1.4,-1.6 0,-0.1 0,-0.2 0,-0.3 -0.1,0 -0.2,0 -0.3,0 0,0.6 -0.1,1.2 0,1.7 0.1,0.4 0.5,0.7 0.7,1.1 0.4,0.8 0.5,1.3 0.8,2.1 -1.2,-0.2 -1.1,-2 -1.8,-2.8 0,0.1 0,0.2 0,0.2 0.1,-0.5 0,-3.8 -0.7,-3.4 z m -20.7,3.3 c -0.1,-0.1 -0.1,-0.1 -0.2,-0.2 0.1,0.1 0.1,0.2 0.2,0.2 z m 7.6,-11.7 c -0.1,-0.7 -0.4,-0.9 -0.5,-1.5 0.3,0.1 0.3,0 0.5,0 -0.2,-0.4 -0.5,-0.6 -0.5,-0.1 -0.1,-0.7 -0.6,-0.8 -0.9,-1.4 0.1,0 0.2,0 0.3,0 0.2,-0.4 -0.1,-0.3 0.4,-0.3 0.1,-1 -1,-0.7 -1.3,-0.2 -0.5,0.8 0.2,1.8 0.8,2.3 -0.9,0.6 0.4,1.9 1.2,1.2 z M 50.4,24.2 c 0.4,0.2 1,0.2 1.5,-0.1 -0.6,-0.2 -1.4,-0.2 -2,-0.1 0.2,0.2 0.3,0.2 0.5,0.2 z M 51,25 c 0.1,0 0.3,-0.1 0.4,-0.1 -0.3,-0.1 -0.5,-0.1 -0.8,-0.1 0.1,0.3 0.1,-0.1 0,0.2 0.2,-0.1 0.3,-0.1 0.4,0 z m -1.9,-0.2 c 0.1,0 0.2,0.1 0.3,0.1 -0.1,0 -0.1,0.1 -0.2,0.1 0.7,0.5 0.8,-0.4 1.5,-0.5 -0.9,-0.3 -1.4,-0.2 -2.2,-0.2 0.2,0.2 0.4,0.4 0.6,0.5 z m -22,22.5 c 0.1,0.1 0,0.4 0.4,0.1 -0.1,-0.1 -0.2,-0.1 -0.4,-0.1 z M 55.6,24.1 c 0.3,0.1 0.6,0 0.9,-0.1 -0.5,0 -0.8,0 -1.3,0 0.3,0 0.5,0.2 0.4,0.1 z m 2.1,2.8 c 0.4,0.2 0.9,0.4 1.4,0.3 -2,-0.4 1.3,-1.7 1.6,-1.9 -0.7,-0.3 -1.8,0.1 -2.5,0.5 -0.1,0.2 0,0.1 -0.3,0.4 0.1,0 0.1,0 0.2,0 -0.4,0.2 -0.4,0.4 -0.4,0.7 z m 7.4,-2.5 c 0.5,0.1 1,0.2 1.5,0.2 -0.4,-0.6 -1.5,-0.9 -2.1,-0.4 0.2,-0.1 0.3,0.1 0.6,0.2 z m 10.6,1.4 c 0.3,-0.1 0.7,-0.1 1.1,-0.1 -0.3,-0.5 -1.3,-0.5 -1.8,-0.4 0.2,0.4 0.4,0.5 0.7,0.5 z m -8.1,-1.2 c -0.5,-0.2 -0.9,-0.4 -1,0.2 0.4,0 0.9,0 1,-0.2 z m 9,1.5 c -0.2,0.1 -0.2,0 -0.3,0.2 0.3,0.1 0.6,0.1 0.8,0.1 C 77,26.2 76.8,26.1 76.6,26.1 Z M 5,29.1 c 0,0 0,0 0,0 z M 7.7,27 C 7.5,26.9 7.4,26.8 7.1,27.1 7.3,27.1 7.5,27 7.7,27 Z m 74.6,6.9 c 0.6,0.5 0.9,1.6 1.4,2.3 0,-0.1 0,-0.2 0,-0.3 0.1,0.1 0.2,0.2 0.3,0.2 -0.3,-0.4 -0.7,-0.7 -0.7,-1.2 0.2,0 0.3,0.1 0.5,0.1 -0.6,-0.6 -1.2,-1.8 -1.8,-2 0.1,0.3 0.2,0.4 0.3,0.9 z M 5.5,28.8 c 0,0 0.3,0.1 0.5,0.1 0.1,0.8 1.1,-0.1 1.7,-0.2 C 7.5,28.2 7,28.3 6.7,28.5 6.8,28.4 6.9,28.4 6.9,28.3 6.4,27 5.6,28.5 5,29.1 5.2,28.9 5.7,28.4 5.5,28.8 Z m 72.1,-3 c 0.2,0 0.3,0.1 0.5,-0.1 -0.3,-0.1 -0.7,-0.1 -1.1,-0.1 0.2,0.1 0.3,0.1 0.6,0.2 z m 8.2,1.3 c -0.1,-0.1 -0.2,-0.2 -0.3,-0.2 0,0 -0.1,0.1 -0.1,0.1 0.2,0.1 0.3,0 0.4,0.1 z M 28.5,50.6 c 0,0 0.1,0.3 0.2,-0.2 -0.1,-0.1 -0.2,0.2 -0.2,0.2 z M 7.1,29.7 c -0.3,-0.1 -0.4,-0.2 -0.7,0 0.2,0.1 0.4,0 0.7,0 z m 2.1,1.9 C 8.9,31.7 8.7,31.7 8.7,32.1 8.9,32 9.2,31.9 9.4,31.8 9.3,31.5 9.3,31.7 9.2,31.6 Z M 6.4,30.8 c 0.2,0 0.3,0.3 0.4,0 -0.1,-0.1 -0.3,0 -0.4,0 z"
       id="path11"
       style="fill:#ffffff;fill-opacity:1">
      <animateTransform
         attributeName="transform"
         type="translate"
         repeatCount="indefinite"
         dur="2s"
         keyTimes="0;1"
         values="0 0;100 0" />
    </path>
  </g>
</svg>
